<svg width="350" height="234" viewBox="0 0 350 234" fill="none" xmlns="http://www.w3.org/2000/svg">
<path d="M341.777 183.737C341.777 183.802 266.686 183.858 174.076 183.858C81.466 183.858 6.35596 183.802 6.35596 183.737C6.35596 183.671 81.4333 183.615 174.076 183.615C266.719 183.615 341.777 183.671 341.777 183.737Z" fill="#263238"/>
<path d="M156.206 202.353L156.203 203.385L177.669 203.456L177.673 202.425L156.206 202.353Z" fill="#E0E0E0"/>
<path d="M177.674 203.465C177.672 203.443 177.672 203.422 177.674 203.4C177.674 203.349 177.674 203.288 177.674 203.209C177.674 203.027 177.674 202.775 177.674 202.434L177.702 202.462C175.033 202.49 166.423 202.49 156.235 202.462C156.417 202.28 156.287 202.415 156.324 202.373V203.4L156.231 203.307L171.416 203.395L176.003 203.442H177.254H177.581H177.697H177.595H177.277H176.05H171.481H156.231H156.137V203.349C156.137 203.185 156.137 203.013 156.137 202.84V202.322C156.179 202.28 156.044 202.411 156.231 202.229C166.418 202.261 175.028 202.317 177.697 202.364H177.721V202.392C177.721 202.742 177.721 202.999 177.721 203.181V203.367C177.716 203.404 177.7 203.439 177.674 203.465V203.465Z" fill="#263238"/>
<path d="M154.594 201.295L154.584 204.389L156.287 204.394L156.298 201.3L154.594 201.295Z" fill="#E0E0E0"/>
<path d="M156.291 204.398C156.262 204.101 156.248 203.802 156.249 203.502C156.249 202.952 156.217 202.191 156.217 201.304L156.301 201.388H154.597C154.597 201.412 154.77 201.216 154.691 201.3V202.163C154.691 202.443 154.691 202.714 154.691 202.975C154.691 203.488 154.691 203.964 154.691 204.375L154.621 204.3L155.843 204.342C156 204.344 156.155 204.357 156.31 204.38C156.165 204.402 156.018 204.412 155.871 204.408C155.577 204.408 155.143 204.436 154.607 204.44H154.537V204.398C154.537 203.978 154.537 203.502 154.537 202.998V201.328L154.63 201.234H156.333H156.422V201.318C156.422 202.252 156.394 203.026 156.375 203.572C156.364 203.849 156.336 204.125 156.291 204.398V204.398Z" fill="#263238"/>
<path d="M177.336 201.365L177.325 204.459L179.029 204.465L179.039 201.371L177.336 201.365Z" fill="#E0E0E0"/>
<path d="M179.032 204.474C179.032 204.474 179.009 204.129 178.99 203.578C178.971 203.027 178.962 202.267 178.957 201.38L179.041 201.469H177.333C177.333 201.469 177.506 201.296 177.422 201.375V201.809C177.422 201.954 177.422 202.099 177.422 202.239C177.422 202.519 177.422 202.789 177.422 203.051C177.422 203.569 177.422 204.04 177.399 204.451L177.333 204.399C177.842 204.399 178.267 204.427 178.556 204.441C178.712 204.444 178.868 204.454 179.023 204.474C178.879 204.497 178.734 204.508 178.589 204.507L177.319 204.539H177.249V204.469C177.249 204.045 177.249 203.573 177.249 203.069V201.394L177.343 201.301H179.046H179.13V201.385C179.13 202.318 179.097 203.097 179.079 203.639C179.08 203.918 179.065 204.197 179.032 204.474V204.474Z" fill="#263238"/>
<path d="M180.6 200.358L167.533 177.818C167.445 177.665 167.318 177.538 167.164 177.449C167.011 177.361 166.838 177.314 166.661 177.314C166.484 177.314 166.31 177.361 166.157 177.449C166.004 177.538 165.877 177.665 165.788 177.818L152.917 200.274C152.83 200.427 152.785 200.6 152.785 200.775C152.785 200.951 152.832 201.124 152.919 201.276C153.007 201.429 153.133 201.555 153.285 201.644C153.437 201.733 153.61 201.78 153.785 201.781L179.713 201.865C179.891 201.867 180.066 201.822 180.22 201.735C180.375 201.648 180.503 201.521 180.593 201.368C180.683 201.215 180.731 201.042 180.732 200.864C180.734 200.687 180.688 200.512 180.6 200.358ZM172.914 197.32L160.645 197.283C160.56 197.286 160.476 197.267 160.401 197.226C160.327 197.185 160.265 197.125 160.222 197.051C160.179 196.978 160.157 196.894 160.159 196.809C160.16 196.724 160.185 196.641 160.23 196.569L166.325 185.943C166.365 185.869 166.424 185.807 166.496 185.764C166.569 185.72 166.651 185.698 166.735 185.698C166.82 185.698 166.902 185.72 166.974 185.764C167.047 185.807 167.106 185.869 167.146 185.943L173.325 196.611C173.368 196.682 173.391 196.763 173.393 196.846C173.394 196.929 173.373 197.011 173.332 197.083C173.291 197.155 173.232 197.215 173.16 197.257C173.088 197.299 173.006 197.32 172.923 197.32H172.914Z" fill="#FF725E"/>
<g opacity="0.3">
<path opacity="0.3" d="M180.6 200.358L167.533 177.818C167.445 177.665 167.318 177.538 167.164 177.449C167.011 177.361 166.838 177.314 166.661 177.314C166.484 177.314 166.31 177.361 166.157 177.449C166.004 177.538 165.877 177.665 165.788 177.818L152.917 200.274C152.83 200.427 152.785 200.6 152.785 200.775C152.785 200.951 152.832 201.124 152.919 201.276C153.007 201.429 153.133 201.555 153.285 201.644C153.437 201.733 153.61 201.78 153.785 201.781L179.713 201.865C179.891 201.867 180.066 201.822 180.22 201.735C180.375 201.648 180.503 201.521 180.593 201.368C180.683 201.215 180.731 201.042 180.732 200.864C180.734 200.687 180.688 200.512 180.6 200.358ZM172.914 197.32L160.645 197.283C160.56 197.286 160.476 197.267 160.401 197.226C160.327 197.185 160.265 197.125 160.222 197.051C160.179 196.978 160.157 196.894 160.159 196.809C160.16 196.724 160.185 196.641 160.23 196.569L166.325 185.943C166.365 185.869 166.424 185.807 166.496 185.764C166.569 185.72 166.651 185.698 166.735 185.698C166.82 185.698 166.902 185.72 166.974 185.764C167.047 185.807 167.106 185.869 167.146 185.943L173.325 196.611C173.368 196.682 173.391 196.763 173.393 196.846C173.394 196.929 173.373 197.011 173.332 197.083C173.291 197.155 173.232 197.215 173.16 197.257C173.088 197.299 173.006 197.32 172.923 197.32H172.914Z" fill="black"/>
</g>
<path d="M177.436 199.266L167.137 181.481C167.093 181.407 167.031 181.345 166.956 181.302C166.881 181.259 166.796 181.236 166.71 181.236C166.623 181.236 166.538 181.259 166.464 181.302C166.389 181.345 166.326 181.407 166.283 181.481L156.128 199.215C156.084 199.289 156.061 199.374 156.061 199.46C156.061 199.547 156.083 199.632 156.126 199.706C156.17 199.781 156.232 199.843 156.307 199.887C156.381 199.93 156.466 199.952 156.553 199.952L177.007 200.022C177.096 200.025 177.185 200.004 177.263 199.96C177.342 199.917 177.407 199.852 177.451 199.774C177.495 199.696 177.517 199.608 177.515 199.518C177.512 199.428 177.485 199.341 177.436 199.266V199.266ZM172.923 197.339L160.655 197.301C160.57 197.305 160.485 197.285 160.411 197.244C160.336 197.204 160.274 197.143 160.231 197.07C160.189 196.996 160.167 196.912 160.168 196.827C160.17 196.742 160.194 196.659 160.239 196.587L166.334 185.961C166.374 185.887 166.433 185.825 166.506 185.782C166.578 185.739 166.661 185.716 166.745 185.716C166.829 185.716 166.912 185.739 166.984 185.782C167.056 185.825 167.115 185.887 167.155 185.961L173.334 196.629C173.373 196.7 173.393 196.781 173.391 196.862C173.39 196.943 173.367 197.022 173.326 197.092C173.284 197.161 173.225 197.219 173.155 197.259C173.084 197.299 173.004 197.32 172.923 197.32V197.339Z" fill="#FF725E"/>
<path d="M167.207 179.433C167.207 179.541 167.175 179.646 167.115 179.736C167.055 179.826 166.969 179.896 166.87 179.937C166.77 179.978 166.66 179.989 166.554 179.968C166.448 179.947 166.351 179.895 166.275 179.819C166.198 179.742 166.146 179.645 166.125 179.539C166.104 179.433 166.115 179.324 166.156 179.224C166.198 179.124 166.268 179.039 166.357 178.979C166.447 178.919 166.553 178.887 166.661 178.887C166.805 178.887 166.944 178.944 167.047 179.047C167.149 179.149 167.207 179.288 167.207 179.433V179.433Z" fill="#E0E0E0"/>
<path d="M166.987 179.124C167.025 179.161 166.908 179.334 166.726 179.516C166.544 179.698 166.367 179.815 166.334 179.777C166.301 179.74 166.413 179.567 166.595 179.385C166.777 179.203 166.955 179.087 166.987 179.124Z" fill="#263238"/>
<path d="M166.978 179.764C166.931 179.788 166.815 179.629 166.647 179.47C166.479 179.312 166.32 179.19 166.343 179.144C166.367 179.097 166.581 179.144 166.773 179.335C166.964 179.526 167.025 179.746 166.978 179.764Z" fill="#263238"/>
<path d="M155.451 200.373C155.439 200.509 155.376 200.637 155.274 200.729C155.173 200.822 155.04 200.873 154.903 200.873C154.766 200.873 154.633 200.822 154.532 200.729C154.431 200.637 154.367 200.509 154.355 200.373C154.348 200.297 154.357 200.22 154.381 200.147C154.405 200.074 154.445 200.008 154.496 199.951C154.548 199.895 154.611 199.849 154.681 199.818C154.751 199.787 154.826 199.771 154.903 199.771C154.98 199.771 155.055 199.787 155.125 199.818C155.195 199.849 155.258 199.895 155.31 199.951C155.362 200.008 155.401 200.074 155.425 200.147C155.449 200.22 155.458 200.297 155.451 200.373V200.373Z" fill="#E0E0E0"/>
<path d="M155.232 200.064C155.269 200.101 155.148 200.274 154.971 200.456C154.793 200.638 154.611 200.754 154.574 200.717C154.537 200.68 154.658 200.507 154.84 200.325C155.022 200.143 155.195 200.026 155.232 200.064Z" fill="#263238"/>
<path d="M155.223 200.704C155.176 200.704 155.055 200.569 154.887 200.405C154.719 200.242 154.565 200.13 154.588 200.083C154.611 200.037 154.826 200.083 155.017 200.275C155.209 200.466 155.269 200.667 155.223 200.704Z" fill="#263238"/>
<path d="M179.429 200.452C179.43 200.562 179.398 200.669 179.338 200.76C179.278 200.851 179.192 200.923 179.091 200.965C178.99 201.007 178.879 201.018 178.772 200.997C178.665 200.976 178.566 200.924 178.489 200.846C178.411 200.769 178.359 200.67 178.338 200.563C178.317 200.456 178.328 200.345 178.37 200.244C178.412 200.143 178.484 200.057 178.575 199.997C178.666 199.937 178.773 199.905 178.883 199.906C179.028 199.906 179.166 199.964 179.269 200.066C179.371 200.169 179.429 200.307 179.429 200.452V200.452Z" fill="#E0E0E0"/>
<path d="M179.2 200.144C179.233 200.181 179.116 200.354 178.934 200.536C178.752 200.718 178.579 200.834 178.542 200.797C178.505 200.76 178.621 200.587 178.803 200.405C178.985 200.223 179.172 200.106 179.2 200.144Z" fill="#263238"/>
<path d="M179.2 200.782C179.153 200.805 179.037 200.647 178.869 200.488C178.701 200.329 178.542 200.208 178.565 200.161C178.589 200.115 178.803 200.161 178.995 200.353C179.186 200.544 179.242 200.763 179.2 200.782Z" fill="#263238"/>
<g opacity="0.3">
<path opacity="0.3" d="M172.685 191.043L171.094 192.732L171.887 194.109L173.521 192.485L172.685 191.043Z" fill="white"/>
</g>
<g opacity="0.3">
<path opacity="0.3" d="M172.354 194.912L173.927 193.199L174.183 193.647L172.587 195.318L172.354 194.912Z" fill="white"/>
</g>
<g opacity="0.3">
<path opacity="0.3" d="M166.311 197.273L163.473 199.938L166.269 199.947L168.891 197.306L166.311 197.273Z" fill="white"/>
</g>
<path d="M165.545 182.877C165.592 182.905 163.809 186.013 161.569 189.821C159.329 193.629 157.472 196.7 157.43 196.676C157.388 196.653 159.166 193.54 161.411 189.728C163.655 185.915 165.503 182.854 165.545 182.877Z" fill="#263238"/>
<path d="M171.626 200.041C171.626 200.093 169.335 200.125 166.493 200.116C163.651 200.107 161.359 200.055 161.359 200.004C161.359 199.953 163.655 199.92 166.493 199.929C169.33 199.939 171.626 199.99 171.626 200.041Z" fill="#263238"/>
<path d="M175.392 195.467C175.146 195.176 174.925 194.863 174.734 194.534C174.351 193.932 173.852 193.092 173.311 192.154L171.939 189.75C171.733 189.428 171.55 189.091 171.393 188.742C171.637 189.035 171.857 189.347 172.051 189.676C172.433 190.273 172.933 191.118 173.474 192.056L174.846 194.454C175.051 194.779 175.234 195.117 175.392 195.467V195.467Z" fill="#263238"/>
<path d="M217.261 69.9104C220.416 68.8464 221.713 66.8864 222.712 64.4924C223.799 61.8884 223.846 59.8257 223.435 57.2217C223.11 55.1414 222.263 53.1776 220.971 51.5144C219.481 49.6032 217.789 47.8572 215.927 46.3064C210.761 41.8311 201.95 40.5337 196.098 44.0664L195.683 44.3231C188.79 48.7564 191.483 56.3444 191.483 56.3444C190.943 56.1713 190.392 56.0311 189.835 55.9244C187.133 55.5324 180.6 54.4871 174.739 61.2397C171.173 65.3371 170.422 70.5031 172.074 76.7984C173.74 83.1357 174.785 84.0551 174.785 84.0551C174.785 84.0551 164.173 89.3891 171.519 94.0884C165.993 93.4164 164.985 98.9091 164.985 98.9091C164.764 99.8597 164.769 100.849 165 101.798C165.231 102.746 165.681 103.627 166.315 104.369C166.72 104.883 167.245 105.29 167.844 105.553C168.443 105.816 169.098 105.927 169.75 105.876V105.876C170.795 105.81 171.821 105.565 172.783 105.153C172.193 105.671 171.772 106.353 171.575 107.113C171.267 108.266 171.351 109.913 172.732 112.088C175.644 116.666 182.826 115.793 183.083 115.76C182.414 116.326 181.797 116.951 181.239 117.627C180.39 118.677 179.625 119.993 179.891 121.146C180.385 123.325 184.613 128.197 185.206 128.878C185.231 128.905 185.254 128.933 185.276 128.962C185.276 128.962 179.111 134.562 181.692 138.94L185.943 147.554C190.024 142.128 193.481 136.259 196.247 130.059C197.955 128.275 199.506 126.347 200.881 124.296C202.953 121.155 204.685 117.342 203.429 114.552C202.235 111.896 199.92 110.473 197.797 109.708C196.327 109.183 194.787 108.882 193.228 108.816C193.228 108.816 194.731 106.222 192.705 104.948C192.137 104.565 191.505 104.287 190.839 104.126C192.28 104.028 193.715 103.852 195.137 103.599C200.2 102.703 207.396 100.435 209.627 94.7324C213.192 85.5951 207.116 78.4877 207.116 78.4877C207.116 78.4877 210.219 78.2964 211.185 75.4124C212.151 72.5284 210.663 71.0724 210.663 71.0724L210.453 70.7224C212.754 70.9268 215.073 70.6502 217.261 69.9104V69.9104Z" fill="#E0E0E0"/>
<path d="M166.087 81.1151C165.489 79.4258 163.478 78.2824 161.798 78.9031C162.252 78.4461 162.608 77.902 162.847 77.3037C163.085 76.7053 163.2 76.065 163.184 75.4211C163.169 74.7773 163.023 74.1432 162.756 73.557C162.49 72.9708 162.107 72.4446 161.632 72.01C161.157 71.5753 160.598 71.2412 159.991 71.0278C159.383 70.8143 158.739 70.7258 158.096 70.7677C157.453 70.8096 156.826 70.981 156.251 71.2715C155.676 71.562 155.166 71.9658 154.751 72.4584L153.785 71.8938C150.911 69.6631 146.081 70.8438 144.564 74.1478C143.047 77.4518 145.301 81.8898 148.867 82.5991C146.412 83.8778 145.502 87.3124 146.757 89.7764C148.013 92.2404 151.065 93.5378 153.785 93.0431C156.506 92.5484 158.769 90.3878 159.763 87.8071C161.572 87.828 163.326 87.1874 164.696 86.0058C166.007 84.7738 166.679 82.7998 166.087 81.1151Z" fill="#E0E0E0"/>
<path d="M226.581 110.085C225.797 109.091 224.509 108.685 223.314 108.297C222.119 107.91 220.906 107.574 219.693 107.775C218.479 107.975 217.289 108.932 217.261 110.164C215.493 109.534 213.691 111.965 213.607 113.431C213.585 114.155 213.811 114.865 214.246 115.444C214.681 116.023 215.3 116.437 216.001 116.618C215.782 116.953 215.646 117.335 215.605 117.734C215.564 118.132 215.619 118.534 215.766 118.906C215.912 119.279 216.145 119.611 216.446 119.875C216.747 120.138 217.107 120.326 217.495 120.423C217.884 120.519 218.289 120.521 218.679 120.428C219.068 120.336 219.429 120.151 219.733 119.89C220.036 119.629 220.273 119.299 220.422 118.928C220.572 118.557 220.631 118.155 220.593 117.757C221.263 118.145 222.031 118.333 222.804 118.298C223.578 118.262 224.325 118.005 224.957 117.556C226.216 116.627 227.055 115.235 227.29 113.687C227.477 112.432 227.355 111.065 226.581 110.085Z" fill="#E0E0E0"/>
<path fill-rule="evenodd" clip-rule="evenodd" d="M196.849 119.793C196.882 119.803 196.909 119.825 196.926 119.854C196.942 119.884 196.947 119.919 196.938 119.952C196.925 119.984 196.902 120.01 196.873 120.028C196.843 120.046 196.809 120.053 196.775 120.05C196.74 120.046 196.707 120.033 196.68 120.013C196.652 119.992 196.63 119.965 196.616 119.933C196.613 119.927 196.611 119.919 196.611 119.912C196.611 119.905 196.613 119.898 196.616 119.891C196.621 119.874 196.633 119.859 196.649 119.849C196.677 119.818 196.712 119.794 196.751 119.779C196.772 119.772 196.794 119.772 196.815 119.777C196.835 119.783 196.854 119.795 196.868 119.812L196.849 119.793Z" fill="#FF725E"/>
<path fill-rule="evenodd" clip-rule="evenodd" d="M184.683 122.177C184.699 122.182 184.714 122.19 184.727 122.201C184.74 122.211 184.751 122.224 184.759 122.239C184.766 122.254 184.771 122.27 184.773 122.287C184.774 122.303 184.772 122.32 184.767 122.336C184.756 122.369 184.733 122.397 184.703 122.415C184.674 122.432 184.638 122.439 184.604 122.434C184.57 122.43 184.539 122.417 184.512 122.396C184.485 122.376 184.463 122.349 184.45 122.317C184.447 122.311 184.445 122.304 184.445 122.296C184.445 122.289 184.447 122.282 184.45 122.275C184.451 122.267 184.454 122.258 184.458 122.251C184.463 122.243 184.47 122.237 184.478 122.233C184.509 122.203 184.545 122.179 184.585 122.163C184.605 122.157 184.626 122.156 184.646 122.162C184.666 122.168 184.684 122.18 184.697 122.196L184.683 122.177Z" fill="#FF725E"/>
<path fill-rule="evenodd" clip-rule="evenodd" d="M195.795 122.826C195.786 122.736 195.756 122.649 195.705 122.575C195.654 122.5 195.585 122.439 195.504 122.399C195.423 122.358 195.333 122.339 195.243 122.342C195.152 122.346 195.064 122.373 194.987 122.42C194.95 122.511 194.933 122.61 194.937 122.708C194.941 122.807 194.966 122.904 195.01 122.992C195.054 123.08 195.116 123.158 195.193 123.22C195.27 123.283 195.359 123.328 195.454 123.353C195.54 123.295 195.608 123.215 195.653 123.121C195.698 123.028 195.718 122.925 195.711 122.821L195.795 122.826Z" fill="#FF725E"/>
<path fill-rule="evenodd" clip-rule="evenodd" d="M169.535 113.832C169.599 113.936 169.619 114.06 169.593 114.178C169.566 114.296 169.495 114.4 169.393 114.466C169.292 114.533 169.168 114.557 169.049 114.534C168.93 114.511 168.825 114.443 168.755 114.344C168.686 114.244 168.657 114.122 168.677 114.002C168.696 113.882 168.761 113.775 168.858 113.702C168.955 113.63 169.077 113.598 169.197 113.613C169.318 113.629 169.427 113.691 169.503 113.786L169.535 113.832Z" fill="#FF725E"/>
<path fill-rule="evenodd" clip-rule="evenodd" d="M197.288 106.161L196.504 106.563C196.594 106.67 196.713 106.75 196.848 106.79C196.982 106.831 197.125 106.831 197.26 106.791C197.307 106.742 197.342 106.683 197.363 106.618C197.384 106.553 197.391 106.485 197.383 106.417C197.375 106.35 197.352 106.285 197.317 106.227C197.281 106.169 197.233 106.119 197.176 106.082L197.288 106.161Z" fill="#FF725E"/>
<path fill-rule="evenodd" clip-rule="evenodd" d="M215.81 127.657C215.789 127.56 215.733 127.475 215.653 127.417C215.573 127.36 215.474 127.334 215.376 127.344C215.18 127.386 215.101 127.694 215.273 127.787C215.446 127.881 215.628 127.708 215.74 127.554L215.81 127.657Z" fill="#FF725E"/>
<path fill-rule="evenodd" clip-rule="evenodd" d="M206.057 111.331C206.061 111.448 206.022 111.562 205.946 111.651C205.871 111.741 205.764 111.798 205.648 111.813C205.532 111.827 205.415 111.797 205.32 111.73C205.224 111.662 205.158 111.561 205.134 111.446C205.11 111.332 205.129 111.213 205.189 111.112C205.248 111.011 205.343 110.937 205.455 110.903C205.567 110.869 205.688 110.878 205.793 110.929C205.898 110.98 205.981 111.068 206.024 111.177L206.057 111.331Z" fill="#FF725E"/>
<path fill-rule="evenodd" clip-rule="evenodd" d="M195.636 117.78C195.641 117.897 195.601 118.011 195.526 118.101C195.45 118.19 195.344 118.247 195.228 118.262C195.111 118.276 194.994 118.247 194.899 118.179C194.804 118.111 194.737 118.01 194.713 117.896C194.689 117.781 194.708 117.662 194.768 117.561C194.827 117.461 194.923 117.386 195.035 117.352C195.146 117.318 195.267 117.328 195.372 117.378C195.478 117.429 195.56 117.518 195.603 117.626L195.636 117.78Z" fill="#FF725E"/>
<path fill-rule="evenodd" clip-rule="evenodd" d="M209.305 123.133C209.293 123.081 209.269 123.032 209.236 122.989C209.203 122.947 209.161 122.912 209.112 122.888C209.064 122.864 209.011 122.851 208.957 122.85C208.903 122.849 208.85 122.859 208.801 122.881C208.756 122.91 208.719 122.949 208.692 122.995C208.666 123.041 208.651 123.093 208.649 123.146C208.646 123.199 208.657 123.252 208.679 123.3C208.702 123.348 208.735 123.39 208.777 123.423C208.824 123.446 208.877 123.456 208.929 123.453C208.982 123.449 209.032 123.432 209.076 123.402C209.119 123.373 209.154 123.333 209.177 123.285C209.2 123.238 209.21 123.186 209.207 123.133H209.305Z" fill="#FF725E"/>
<path fill-rule="evenodd" clip-rule="evenodd" d="M206.906 123.666C206.729 123.456 206.463 123.335 206.285 123.531C206.201 123.649 206.161 123.793 206.171 123.937C206.181 124.082 206.241 124.219 206.341 124.324C206.542 124.464 206.808 124.207 206.808 123.885L206.906 123.666Z" fill="#FF725E"/>
<path d="M218.437 92.6094L207.433 100.86L209.347 102.33L200.993 110.543L213.85 101.443L211.876 99.9267L218.437 92.6094Z" fill="#FF725E"/>
<path d="M165.307 93.1465L174.603 101.07L172.825 102.265L179.774 110.002L168.882 101.229L170.716 99.9971L165.307 93.1465Z" fill="#FF725E"/>
<path d="M193.335 74.4844L188.221 92.7357H191.543L189.289 108.719L195.725 87.9897H192.295L193.335 74.4844Z" fill="#FF725E"/>
<path d="M334.334 147.803H186.032V169.563H334.334V147.803Z" fill="#FF725E"/>
<g opacity="0.3">
<path opacity="0.3" d="M334.334 147.803H186.032V169.563H334.334V147.803Z" fill="black"/>
</g>
<path d="M207.201 183.648C215.069 182.966 220.894 176.036 220.213 168.168C219.532 160.301 212.601 154.475 204.734 155.157C196.866 155.838 191.041 162.768 191.722 170.636C192.404 178.503 199.334 184.329 207.201 183.648Z" fill="#263238"/>
<path d="M191.665 169.176C191.662 169.188 191.662 169.201 191.665 169.213C191.638 171.091 191.981 172.956 192.674 174.701C193.368 176.446 194.399 178.037 195.707 179.384C198.35 182.104 201.966 183.663 205.758 183.717C209.55 183.772 213.209 182.317 215.929 179.674C218.649 177.031 220.207 173.416 220.262 169.624V169.586L191.665 169.176Z" fill="#263238"/>
<path d="M195.921 169.273C195.892 171.258 196.453 173.207 197.532 174.874C198.611 176.54 200.16 177.849 201.983 178.635C203.807 179.421 205.822 179.648 207.774 179.289C209.727 178.93 211.529 178 212.953 176.616C214.376 175.233 215.358 173.458 215.773 171.517C216.189 169.576 216.019 167.555 215.286 165.71C214.553 163.865 213.289 162.279 211.655 161.152C210.02 160.026 208.088 159.409 206.103 159.38C204.785 159.361 203.476 159.602 202.251 160.088C201.026 160.575 199.908 161.299 198.963 162.217C198.017 163.136 197.262 164.232 196.74 165.443C196.218 166.653 195.94 167.955 195.921 169.273V169.273Z" fill="#FAFAFA"/>
<path d="M206.103 159.38C204.785 159.361 203.476 159.602 202.251 160.088C201.026 160.575 199.908 161.299 198.963 162.217C198.017 163.136 197.262 164.232 196.74 165.443C196.218 166.653 195.94 167.955 195.921 169.273L215.987 169.563C216.026 166.902 215.007 164.335 213.153 162.425C211.3 160.516 208.764 159.421 206.103 159.38V159.38Z" fill="#E0E0E0"/>
<path d="M199.845 169.33C199.828 170.539 200.169 171.726 200.826 172.741C201.484 173.756 202.427 174.553 203.537 175.032C204.647 175.51 205.875 175.649 207.064 175.431C208.253 175.212 209.35 174.646 210.218 173.803C211.085 172.961 211.683 171.88 211.936 170.698C212.189 169.515 212.086 168.285 211.639 167.161C211.193 166.037 210.424 165.071 209.428 164.385C208.433 163.699 207.256 163.323 206.047 163.305C205.244 163.293 204.447 163.439 203.7 163.735C202.954 164.032 202.273 164.472 201.697 165.032C201.121 165.591 200.661 166.259 200.343 166.997C200.025 167.734 199.856 168.527 199.845 169.33V169.33Z" fill="#263238"/>
<path d="M316.229 183.682C324.11 183.177 330.089 176.378 329.583 168.497C329.078 160.617 322.279 154.638 314.399 155.143C306.518 155.649 300.539 162.447 301.044 170.328C301.55 178.209 308.348 184.188 316.229 183.682Z" fill="#263238"/>
<path d="M301 169.176V169.213C300.973 171.091 301.316 172.956 302.01 174.701C302.703 176.446 303.734 178.037 305.043 179.384C306.351 180.731 307.913 181.807 309.637 182.55C311.362 183.294 313.216 183.69 315.093 183.717C316.971 183.744 318.836 183.401 320.581 182.707C322.326 182.014 323.917 180.983 325.264 179.674C326.611 178.366 327.687 176.804 328.43 175.08C329.174 173.356 329.57 171.502 329.597 169.624V169.586L301 169.176Z" fill="#263238"/>
<path d="M305.275 169.273C305.246 171.258 305.807 173.207 306.886 174.873C307.964 176.539 309.513 177.848 311.335 178.634C313.158 179.42 315.173 179.648 317.125 179.29C319.077 178.931 320.879 178.002 322.303 176.62C323.727 175.237 324.71 173.463 325.126 171.523C325.543 169.582 325.374 167.562 324.643 165.717C323.911 163.871 322.649 162.285 321.016 161.157C319.382 160.029 317.451 159.411 315.467 159.38C314.148 159.36 312.838 159.6 311.611 160.086C310.385 160.572 309.267 161.295 308.32 162.214C307.373 163.133 306.617 164.229 306.095 165.441C305.572 166.652 305.294 167.954 305.275 169.273Z" fill="#FAFAFA"/>
<path d="M315.467 159.38C314.148 159.361 312.839 159.602 311.614 160.088C310.389 160.575 309.272 161.299 308.326 162.217C307.38 163.136 306.625 164.232 306.103 165.443C305.581 166.653 305.303 167.955 305.284 169.273L325.351 169.563C325.389 166.902 324.37 164.335 322.516 162.425C320.663 160.516 318.127 159.421 315.467 159.38V159.38Z" fill="#E0E0E0"/>
<path d="M309.195 169.33C309.176 170.54 309.517 171.728 310.174 172.745C310.831 173.761 311.775 174.559 312.886 175.039C313.997 175.519 315.225 175.659 316.416 175.44C317.606 175.222 318.705 174.656 319.573 173.813C320.442 172.97 321.04 171.888 321.294 170.705C321.548 169.522 321.445 168.29 320.998 167.165C320.552 166.04 319.781 165.073 318.785 164.386C317.789 163.699 316.611 163.323 315.401 163.305C314.598 163.293 313.8 163.439 313.054 163.735C312.307 164.031 311.626 164.472 311.049 165.031C310.473 165.591 310.012 166.259 309.694 166.996C309.376 167.734 309.206 168.527 309.195 169.33V169.33Z" fill="#263238"/>
<path d="M224.705 135.562C224.705 135.562 203.644 137.116 195.841 138.866C191.371 139.869 183.708 141.223 180.983 145.362C180.983 145.362 180.591 145.535 180.264 145.67C180.159 145.719 180.076 145.806 180.031 145.913C179.986 146.02 179.983 146.139 180.021 146.249C180.189 146.687 180.437 147.345 180.455 147.462C180.535 148.055 179.657 148.372 179.667 148.736L180.703 153.683C180.703 153.683 176.811 153.076 180.031 156.338C181.683 158.013 185.267 171.589 184.991 172.051C184.212 173.348 189.378 172.051 189.378 172.051L190.563 162.96C190.563 162.853 192.229 162.755 192.803 162.554C192.868 162.532 192.922 162.487 192.957 162.428C192.991 162.369 193.003 162.299 192.99 162.232C191.385 152.488 198.45 153.701 205.646 153.468C223.925 152.889 222.651 171.869 222.651 171.869H298.947C298.947 171.869 297.887 152.712 316.059 152.875C331.753 153.02 332.178 172.009 332.178 172.009C332.178 172.009 339.416 172.639 342.785 166.553C346.155 160.468 345.277 156.137 345.277 156.137L345.165 152.292C345.147 151.661 344.889 151.061 344.445 150.613C344 150.165 343.402 149.903 342.771 149.879C342.771 149.879 344.087 140.196 342.071 138.516C340.055 136.836 329.005 126.733 329.005 126.733L329.527 126.401C329.726 126.278 329.886 126.101 329.988 125.89C330.091 125.679 330.131 125.444 330.104 125.211C330.078 124.978 329.986 124.758 329.839 124.575C329.693 124.393 329.497 124.256 329.275 124.18C325.075 122.733 316.764 119.873 314.809 119.191C314.519 119.092 314.218 119.03 313.913 119.005C312.751 118.916 309.451 118.706 303.389 118.641C296.011 118.561 266.733 118.641 266.733 118.641C266.733 118.641 256.667 119.467 251.067 121.931C245.14 124.53 224.705 135.562 224.705 135.562Z" fill="#FF725E"/>
<path d="M227.929 171.589C227.929 171.589 227.929 171.537 227.929 171.43C227.929 171.323 227.929 171.164 227.929 170.963C227.929 170.54 227.911 169.918 227.873 169.097C227.827 167.473 227.757 165.102 227.673 162.097C227.589 159.091 227.491 155.414 227.374 151.214C227.346 150.166 227.316 149.077 227.285 147.947C227.266 147.38 227.291 146.812 227.36 146.249C227.402 145.964 227.439 145.679 227.481 145.39C227.523 145.101 227.598 144.816 227.659 144.527C227.936 143.347 228.335 142.199 228.849 141.101C229.377 139.943 230.033 138.848 230.804 137.835V137.835L244.02 129.509L247.585 127.265C248.789 126.465 250.052 125.759 251.365 125.155C252.7 124.53 254.069 123.983 255.467 123.517C256.167 123.27 256.867 123.051 257.605 122.855C258.342 122.659 259.056 122.463 259.798 122.313C262.601 121.713 265.45 121.354 268.315 121.24C271.06 121.109 273.811 121.119 276.556 121.268H276.635V121.347C275.371 127.003 274.176 132.337 273.084 137.214C272.431 138.29 271.898 139.434 271.493 140.625C271.086 141.755 270.902 142.953 270.951 144.153C271.045 145.329 271.077 146.487 271.105 147.588C271.133 148.689 271.147 149.786 271.171 150.855C271.231 155.055 271.245 158.713 271.259 161.728C271.273 164.743 271.259 167.113 271.259 168.728C271.259 169.535 271.259 170.151 271.259 170.571C271.259 170.781 271.259 170.94 271.259 171.038C271.259 171.136 271.259 171.197 271.259 171.197C271.259 171.197 271.259 171.145 271.259 171.038C271.259 170.931 271.259 170.772 271.259 170.571C271.259 170.151 271.259 169.535 271.259 168.728C271.259 167.109 271.259 164.738 271.217 161.728C271.175 158.718 271.171 155.05 271.101 150.855C271.079 149.809 271.056 148.728 271.031 147.611C270.998 146.496 270.965 145.353 270.872 144.181C270.819 142.966 271.003 141.752 271.413 140.607C271.82 139.405 272.356 138.252 273.014 137.167V137.167C274.106 132.277 275.291 126.943 276.551 121.301L276.612 121.385C273.871 121.242 271.125 121.242 268.385 121.385C265.53 121.498 262.689 121.857 259.896 122.458C259.154 122.603 258.431 122.813 257.707 122.995C256.984 123.177 256.275 123.405 255.575 123.653C254.181 124.117 252.816 124.662 251.487 125.286C250.19 125.886 248.941 126.587 247.753 127.381L244.067 129.649L230.86 137.965C230.095 138.966 229.442 140.047 228.914 141.19C228.403 142.28 228.006 143.42 227.729 144.592C227.127 146.879 227.43 149.142 227.435 151.233C227.542 155.433 227.631 159.096 227.705 162.111C227.78 165.125 227.831 167.501 227.873 169.111C227.873 169.918 227.901 170.539 227.911 170.977C227.911 171.183 227.911 171.341 227.911 171.444C227.911 171.547 227.929 171.589 227.929 171.589Z" fill="#263238"/>
<path d="M276.458 121.749H276.584H276.953L278.353 121.717L283.612 121.614L301.345 121.311H301.378V121.334L303.861 124.381L310.963 133.085L311.771 134.074C312.03 134.405 312.252 134.763 312.433 135.143C312.766 135.846 312.947 136.611 312.964 137.388C312.982 138.165 312.836 138.938 312.536 139.655C312.251 140.309 311.985 140.939 311.724 141.522C310.693 143.916 309.857 145.853 309.274 147.201C308.98 147.864 308.756 148.382 308.597 148.741L308.42 149.138L308.355 149.273C308.355 149.273 308.355 149.227 308.406 149.133C308.457 149.04 308.504 148.905 308.574 148.727L309.223 147.178C309.797 145.829 310.623 143.883 311.635 141.485C312.102 140.276 312.905 139.007 312.849 137.453C312.839 136.666 312.659 135.89 312.321 135.18C312.144 134.81 311.927 134.461 311.673 134.139L310.861 133.15L303.8 124.442L301.317 121.399L301.369 121.423L283.635 121.679L278.371 121.745H276.971H276.477L276.458 121.749Z" fill="#263238"/>
<path d="M267.503 145.344C267.503 145.344 267.577 145.344 267.713 145.312C267.914 145.276 268.106 145.2 268.277 145.088C268.545 144.911 268.745 144.65 268.847 144.346C268.908 144.156 268.933 143.957 268.921 143.758C268.915 143.536 268.857 143.319 268.753 143.123C268.636 142.898 268.459 142.709 268.242 142.576C268.024 142.444 267.776 142.373 267.521 142.372H261.59C261.245 142.369 260.911 142.495 260.652 142.724C260.394 142.953 260.229 143.27 260.19 143.613C260.149 143.934 260.207 144.26 260.358 144.546C260.513 144.82 260.754 145.035 261.044 145.158C261.329 145.254 261.631 145.291 261.931 145.265H264.376L266.653 145.288H267.269H267.489H267.269H266.653L264.376 145.312H261.931C261.781 145.312 261.632 145.312 261.464 145.312C261.304 145.302 261.146 145.266 260.997 145.204C260.682 145.075 260.419 144.843 260.251 144.546C260.081 144.233 260.014 143.874 260.059 143.52C260.094 143.154 260.26 142.812 260.526 142.558C260.81 142.3 261.178 142.156 261.562 142.152H265.692H267.498C267.771 142.159 268.037 142.239 268.268 142.383C268.5 142.528 268.688 142.732 268.814 142.974C268.92 143.185 268.978 143.418 268.982 143.655C268.989 143.862 268.959 144.07 268.893 144.266C268.781 144.584 268.564 144.854 268.277 145.032C268.099 145.143 267.898 145.214 267.689 145.237C267.633 145.282 267.57 145.318 267.503 145.344V145.344Z" fill="#263238"/>
<path d="M307.067 145.344C307.067 145.344 307.141 145.344 307.277 145.312C307.478 145.277 307.671 145.2 307.841 145.088C308.11 144.913 308.312 144.651 308.411 144.346C308.472 144.156 308.497 143.957 308.485 143.758C308.48 143.536 308.423 143.318 308.317 143.123C308.2 142.898 308.024 142.71 307.808 142.578C307.591 142.445 307.343 142.374 307.09 142.372H301.131C300.785 142.375 300.452 142.506 300.197 142.74C299.941 142.965 299.775 143.275 299.731 143.613C299.688 143.935 299.749 144.261 299.903 144.546C300.058 144.819 300.297 145.033 300.585 145.158C300.871 145.254 301.175 145.291 301.476 145.265H303.921L306.194 145.288H306.815H307.029H306.815H306.194L303.921 145.312H301.476C301.322 145.312 301.177 145.312 301.009 145.312C300.849 145.303 300.691 145.267 300.543 145.204C300.225 145.076 299.96 144.844 299.791 144.546C299.621 144.233 299.554 143.874 299.6 143.52C299.643 143.145 299.822 142.8 300.102 142.548C300.382 142.296 300.745 142.156 301.121 142.152H305.256H307.067C307.461 142.161 307.836 142.322 308.113 142.603C308.39 142.883 308.547 143.261 308.551 143.655C308.56 143.863 308.53 144.07 308.462 144.266C308.352 144.585 308.134 144.856 307.846 145.032C307.668 145.143 307.467 145.214 307.258 145.237C307.2 145.282 307.135 145.318 307.067 145.344V145.344Z" fill="#263238"/>
<path d="M341.717 138.889H333.783C333.251 138.889 332.728 139.035 332.273 139.31C331.817 139.586 331.446 139.981 331.198 140.452V140.452C330.993 140.84 330.879 141.27 330.863 141.709C330.848 142.148 330.932 142.584 331.109 142.986L334.213 150.033L342.146 149.958C342.146 149.958 343.845 141.021 341.717 138.889Z" fill="#FAFAFA"/>
<path d="M231.831 137.896L272.659 137.14L299.227 136.673L308 131.6C308.167 131.503 308.311 131.372 308.424 131.215C308.536 131.058 308.614 130.879 308.652 130.69C308.69 130.5 308.687 130.305 308.644 130.117C308.601 129.929 308.518 129.752 308.401 129.598L302.946 122.435C302.666 122.066 302.304 121.766 301.89 121.558C301.476 121.35 301.02 121.24 300.557 121.236L270.839 120.993C270.839 120.993 259.639 120.344 250.833 125.282C241.542 130.471 231.831 137.896 231.831 137.896Z" fill="#263238"/>
<path d="M250.544 121.73C250.544 121.73 252.588 122.664 251.258 123.527C249.928 124.39 229.241 137.434 229.241 137.434L224.467 135.282C232.909 130.588 241.416 126.033 250.544 121.73Z" fill="#455A64"/>
<path d="M344.867 156.039C344.867 156.076 342.146 156.109 338.8 156.109C335.454 156.109 332.733 156.076 332.733 156.039C332.733 156.001 335.454 155.969 338.8 155.969C342.146 155.969 344.867 156.001 344.867 156.039Z" fill="#263238"/>
<path d="M298.811 167.318C298.811 167.355 281.713 167.388 260.629 167.388C239.545 167.388 222.441 167.355 222.441 167.318C222.441 167.281 239.535 167.248 260.629 167.248C281.722 167.248 298.811 167.281 298.811 167.318Z" fill="#263238"/>
<path d="M328.776 126.467C328.776 126.467 326.951 128.506 327.67 130.004C328.389 131.502 335.79 136.733 335.79 136.733L341.166 137.746L328.776 126.467Z" fill="#455A64"/>
<path d="M277.667 122.789L276.458 135.842L298.088 135.226L306.805 130.158L301.163 122.789H277.667Z" fill="#455A64"/>
<path d="M236.955 136.514C236.955 136.514 250.021 127.087 255.155 125.216C260.125 123.405 262.715 122.952 267.381 122.822C271.843 122.696 274.563 122.822 274.563 122.822L271.133 136.089L236.955 136.514Z" fill="#455A64"/>
<path d="M235.046 136.556C235.045 136.15 235.153 135.752 235.358 135.401C235.563 135.051 235.858 134.762 236.213 134.564L239.209 132.879C240.064 132.399 241.028 132.146 242.009 132.146V132.146C242.613 132.146 243.213 132.243 243.787 132.431C244.409 132.649 244.951 133.051 245.341 133.584C245.731 134.116 245.95 134.754 245.971 135.413V135.413C245.988 135.857 245.916 136.3 245.758 136.716C245.6 137.131 245.36 137.511 245.052 137.831C244.744 138.151 244.374 138.406 243.965 138.58C243.556 138.754 243.116 138.843 242.671 138.843H237.333C237.032 138.843 236.735 138.784 236.458 138.669C236.18 138.554 235.928 138.386 235.716 138.173C235.503 137.961 235.335 137.709 235.22 137.432C235.105 137.154 235.046 136.857 235.046 136.556V136.556Z" fill="#FF725E"/>
<path d="M235.046 136.555C235.046 136.555 235.046 136.658 235.079 136.845C235.118 137.12 235.208 137.386 235.345 137.629C235.515 137.94 235.757 138.206 236.051 138.406C236.345 138.605 236.682 138.732 237.034 138.777C237.345 138.794 237.656 138.794 237.967 138.777H242.541C242.975 138.788 243.407 138.717 243.815 138.567C244.244 138.406 244.634 138.156 244.961 137.835C245.287 137.513 245.542 137.127 245.709 136.7C245.876 136.253 245.943 135.775 245.905 135.3C245.87 134.826 245.731 134.366 245.498 133.952C245.265 133.539 244.944 133.181 244.557 132.906C244.183 132.653 243.763 132.477 243.32 132.388C242.895 132.284 242.46 132.232 242.023 132.234C241.218 132.231 240.422 132.401 239.689 132.733C239.344 132.887 239.027 133.083 238.714 133.251L237.823 133.751L236.287 134.6C235.895 134.805 235.571 135.119 235.354 135.505C235.22 135.749 235.13 136.014 235.088 136.289C235.06 136.476 235.06 136.579 235.055 136.579C235.045 136.481 235.045 136.382 235.055 136.285C235.084 136.003 235.168 135.731 235.303 135.482C235.517 135.087 235.841 134.763 236.236 134.549L237.762 133.676L238.653 133.172C238.961 133.004 239.279 132.803 239.629 132.645C240.38 132.3 241.196 132.12 242.023 132.117C242.469 132.116 242.914 132.167 243.348 132.271C243.808 132.364 244.246 132.546 244.636 132.808C245.038 133.096 245.372 133.469 245.613 133.901C245.855 134.332 246 134.811 246.036 135.305C246.075 135.806 246.003 136.309 245.826 136.779C245.653 137.234 245.382 137.645 245.033 137.983C244.695 138.312 244.293 138.566 243.852 138.73C243.429 138.883 242.981 138.956 242.531 138.945H237.958C237.647 138.954 237.335 138.945 237.025 138.917C236.746 138.88 236.477 138.791 236.231 138.655C235.838 138.439 235.514 138.115 235.298 137.722C235.169 137.471 235.087 137.199 235.055 136.919C235.041 136.798 235.038 136.677 235.046 136.555V136.555Z" fill="#263238"/>
<path d="M270.541 137.895H270.475H270.298H269.598L267.036 137.941C264.871 137.983 261.879 138.063 258.575 138.151C255.271 138.24 252.28 138.305 250.115 138.319C249.032 138.319 248.155 138.319 247.553 138.319H246.853H246.61H246.671H246.853H247.553L250.115 138.273C252.28 138.235 255.248 138.151 258.575 138.063C261.903 137.974 264.866 137.909 267.031 137.895C268.114 137.895 268.991 137.895 269.598 137.895H270.298H270.475H270.541Z" fill="white"/>
<path d="M266.994 141.913C265.44 142.006 263.882 142.006 262.327 141.913C263.882 141.821 265.44 141.821 266.994 141.913Z" fill="white"/>
<path d="M299.32 127.102C299.32 127.14 296.427 128.348 292.829 129.809C289.231 131.27 286.295 132.418 286.295 132.38C286.295 132.343 289.189 131.134 292.791 129.678C296.394 128.222 299.306 127.07 299.32 127.102Z" fill="white"/>
<path d="M293.431 128.016C293.431 128.054 290.677 129.272 287.247 130.742C283.817 132.212 281.027 133.369 281.013 133.336C280.999 133.304 283.766 132.081 287.196 130.611C290.626 129.141 293.417 127.979 293.431 128.016Z" fill="white"/>
<path d="M299.889 137.891C299.889 137.928 294.107 137.998 286.977 138.04C279.846 138.082 274.064 138.082 274.064 138.04C274.064 137.998 279.841 137.937 286.977 137.895C294.112 137.853 299.889 137.853 299.889 137.891Z" fill="white"/>
<path d="M306.292 141.689C306.292 141.727 304.673 141.773 302.671 141.792C300.669 141.811 299.049 141.792 299.049 141.759C299.049 141.727 300.669 141.671 302.671 141.652C304.673 141.633 306.292 141.652 306.292 141.689Z" fill="white"/>
<path d="M243.32 133.405C243.32 133.405 243.245 133.303 243.063 133.158C242.809 132.958 242.503 132.835 242.181 132.803C241.701 132.763 241.218 132.816 240.758 132.957C240.181 133.099 239.618 133.29 239.073 133.527C238.082 133.957 237.159 134.531 236.334 135.23C235.699 135.762 235.363 136.163 235.345 136.163C235.408 136.06 235.484 135.965 235.569 135.879C235.727 135.706 235.961 135.459 236.273 135.179C237.541 134.044 239.071 133.242 240.725 132.845C241.202 132.706 241.702 132.663 242.195 132.719C242.531 132.765 242.845 132.908 243.101 133.13C243.169 133.19 243.228 133.259 243.278 133.335C243.311 133.373 243.325 133.405 243.32 133.405Z" fill="white"/>
<path d="M331.221 157.877C331.131 157.777 331.047 157.671 330.969 157.56C330.811 157.35 330.596 157.028 330.274 156.627C329.415 155.51 328.437 154.489 327.357 153.584C325.753 152.245 323.914 151.213 321.935 150.541C319.5 149.748 316.954 149.354 314.393 149.375C313.072 149.374 311.755 149.516 310.464 149.799C309.259 150.052 308.083 150.429 306.955 150.924C305.029 151.738 303.269 152.898 301.761 154.345C300.744 155.313 299.861 156.411 299.133 157.611C298.867 158.036 298.713 158.391 298.578 158.619C298.519 158.74 298.452 158.857 298.377 158.969C298.418 158.842 298.472 158.718 298.536 158.601C298.653 158.363 298.797 157.999 299.049 157.565C299.752 156.328 300.624 155.196 301.639 154.2C303.152 152.722 304.924 151.536 306.866 150.7C308.005 150.193 309.193 149.807 310.413 149.547C311.721 149.259 313.058 149.113 314.398 149.113C316.982 149.104 319.551 149.52 322 150.345C323.999 151.033 325.85 152.092 327.455 153.467C328.536 154.389 329.504 155.436 330.339 156.585C330.647 156.981 330.853 157.313 331.002 157.518C331.087 157.63 331.161 157.751 331.221 157.877Z" fill="#263238"/>
<path d="M223.104 157.995C222.986 157.925 222.872 157.847 222.763 157.762L221.83 157.062C221.018 156.451 219.861 155.541 218.437 154.402C217.728 153.833 216.953 153.207 216.104 152.559C215.221 151.858 214.27 151.247 213.267 150.734C212.138 150.2 210.925 149.865 209.683 149.745C208.343 149.61 206.997 149.548 205.651 149.558C204.311 149.568 202.986 149.838 201.749 150.351C200.592 150.826 199.476 151.395 198.413 152.055C196.369 153.315 194.637 154.617 193.172 155.695C191.707 156.773 190.507 157.636 189.644 158.173C189.316 158.389 188.977 158.587 188.627 158.765C188.51 158.837 188.387 158.896 188.258 158.943C188.369 158.863 188.484 158.79 188.603 158.723C188.837 158.588 189.173 158.383 189.593 158.093C190.437 157.533 191.618 156.656 193.069 155.555C194.521 154.453 196.247 153.142 198.296 151.863C199.368 151.191 200.496 150.611 201.665 150.127C202.929 149.601 204.282 149.325 205.651 149.315C207.007 149.306 208.362 149.372 209.711 149.511C210.979 149.638 212.215 149.983 213.365 150.533C214.383 151.056 215.344 151.681 216.235 152.4C217.079 153.053 217.849 153.693 218.568 154.267L221.909 156.987L222.819 157.725C222.919 157.809 223.014 157.9 223.104 157.995V157.995Z" fill="#263238"/>
<path d="M331.445 140.783C330.787 140.13 315.331 124.739 314.594 123.358C313.857 121.976 313.661 119.125 313.661 119.008L314.127 118.98C314.127 119.008 314.295 121.836 314.995 123.138C315.56 124.193 326.195 134.926 331.763 140.452L331.445 140.783Z" fill="#263238"/>
<g opacity="0.4">
<path opacity="0.4" d="M226.851 136.939C226.851 136.939 204.386 140.537 201.572 141.037C198.758 141.536 182.462 144.821 181.972 145.111C182.49 144.461 183.091 143.882 183.759 143.389C186.037 141.989 189.546 140.985 189.546 140.985C189.546 140.985 199.22 138.82 202.566 138.213C203.765 137.994 211.848 137.14 213.505 137.019C213.892 136.986 221.438 136.118 222.661 135.983C224.145 135.801 226.851 136.939 226.851 136.939Z" fill="black"/>
</g>
<path d="M212.968 135.006C212.837 135.086 209.02 136.98 209.02 136.98L205.497 140.382C205.497 140.382 203.891 140.63 203.812 140.658C203.733 140.686 208.6 136.164 208.6 136.164L211.755 134.824L212.968 135.006Z" fill="#263238"/>
<path d="M214.863 138.866L218.596 136.687L223.225 134.853C223.351 134.804 223.488 134.787 223.622 134.803C223.756 134.819 223.885 134.868 223.995 134.946L226.833 136.939L224.751 137.242L223.729 136.309C223.617 136.206 223.477 136.137 223.327 136.11C223.177 136.082 223.022 136.098 222.88 136.155L217.747 138.381L214.863 138.866Z" fill="#263238"/>
<path d="M201.572 141.037C201.572 141.037 200.018 139.763 199.271 139.833C198.525 139.903 193.592 141.126 193.424 141.466C193.256 141.807 192.957 142.451 192.957 142.451C192.957 142.451 188.888 142.838 188.785 143.417C188.683 143.996 188.725 143.804 188.725 143.804L201.572 141.037Z" fill="#263238"/>
<path d="M207.438 133.467C207.751 133.677 215.054 136.132 215.455 136.034C215.857 135.936 226.851 135.077 226.851 135.077L204.965 132.744H193.335L184.277 139.879C184.277 139.879 186.06 140.995 186.611 141.027C187.161 141.06 190.778 139.511 190.778 139.511L192.878 136.888L195.001 135.068L197.526 133.467L200.951 134.317L203.285 134.251L207.438 133.467Z" fill="#FF725E"/>
<g opacity="0.4">
<path opacity="0.4" d="M207.438 133.467C207.751 133.677 215.054 136.132 215.455 136.034C215.857 135.936 226.851 135.077 226.851 135.077L204.965 132.744H193.335L184.277 139.879C184.277 139.879 186.06 140.995 186.611 141.027C187.161 141.06 190.778 139.511 190.778 139.511L192.878 136.888L195.001 135.068L197.526 133.467L200.951 134.317L203.285 134.251L207.438 133.467Z" fill="black"/>
</g>
<path d="M226.851 135.053L216.333 134.824L207.587 132.999L201.633 132.943H193.438L187.647 138.637L184.277 139.817L184.235 139.318C185.355 137.778 191.977 132.509 192.677 131.851C193.377 131.193 199.113 129.252 199.817 129.252C200.522 129.252 220.589 132.519 220.589 132.519L226.851 135.053Z" fill="#FF725E"/>
<path d="M226.851 135.054C226.786 135.059 226.721 135.059 226.655 135.054H226.091L223.93 134.984L216.193 134.667L207.667 132.824H207.69L204.353 132.754L198.478 132.642L195.748 132.609H194.446C194.231 132.609 194.021 132.609 193.811 132.609H193.503H193.368C193.326 132.609 193.279 132.609 193.251 132.642C192.654 133.136 192.08 133.729 191.548 134.247L190.031 135.801L187.553 138.312C186.714 138.496 185.894 138.759 185.103 139.096L184.483 139.376C184.415 139.413 184.343 139.443 184.268 139.464C184.331 139.418 184.398 139.378 184.469 139.343C184.604 139.268 184.805 139.161 185.075 139.035C185.86 138.668 186.682 138.384 187.525 138.186H187.493L189.938 135.642L191.445 134.107L192.267 133.29C192.555 132.996 192.859 132.717 193.177 132.455C193.228 132.422 193.288 132.404 193.349 132.404C193.407 132.399 193.464 132.399 193.522 132.404H193.839C194.049 132.404 194.264 132.404 194.474 132.404H195.781L198.515 132.427L204.391 132.53L207.727 132.604H207.751L216.253 134.471L223.986 134.872L226.142 134.998L226.711 135.04L226.851 135.054Z" fill="#263238"/>
<path d="M208.39 130.825C208.389 131.165 208.309 131.501 208.157 131.805C207.965 132.323 207.76 132.739 207.69 132.697C207.691 132.358 207.771 132.024 207.923 131.721C208.133 131.203 208.325 130.802 208.39 130.825Z" fill="#263238"/>
<path d="M192.733 131.843C192.794 131.81 192.92 131.95 193.041 132.127C193.163 132.305 193.242 132.473 193.191 132.519C193.139 132.566 192.971 132.459 192.841 132.263C192.71 132.067 192.677 131.871 192.733 131.843Z" fill="#263238"/>
<g opacity="0.3">
<path opacity="0.3" d="M195.725 132.491L197.372 131.763L199.883 129.92L198.235 131.763L200.116 132.3L204.344 132.631L195.725 132.491Z" fill="black"/>
</g>
<path d="M206.159 140.276L207.317 139.469L209.613 139.147L210.896 138.237L214.69 137.742L215.334 138.344L215.628 138.741L206.159 140.276Z" fill="#263238"/>
<path d="M225.484 137.201L225.377 137.229L225.069 137.289L223.865 137.509L219.441 138.265L204.829 140.673C201.969 141.111 199.267 141.657 196.807 142.124L190.274 143.407C188.407 143.767 186.905 144.051 185.864 144.238L184.66 144.448L184.343 144.495H184.235C184.268 144.48 184.303 144.469 184.338 144.462L184.651 144.392L185.845 144.135L190.241 143.225L196.775 141.895C199.234 141.429 201.936 140.864 204.797 140.421L219.422 138.087L223.86 137.406L225.069 137.233L225.381 137.196C225.416 137.191 225.45 137.193 225.484 137.201Z" fill="#263238"/>
<g opacity="0.3">
<path opacity="0.3" d="M181.23 156.758C181.793 156.911 182.303 157.216 182.705 157.64C183.209 158.27 184.501 160.505 184.501 160.505L188.235 158.228L186.2 160.505L185.925 162.232L185.458 162.941L188.258 164.808C188.258 164.808 184.903 164.57 184.59 164.49C184.277 164.411 181.813 159.824 181.813 159.824L181.561 156.781" fill="black"/>
</g>
<path d="M170.903 159.011C170.908 158.966 170.926 158.923 170.954 158.886C170.981 158.85 171.019 158.822 171.061 158.806C172.149 158.418 179.051 155.973 180.684 156.44C182.453 156.948 183.624 162.156 185.603 163.622C187.581 165.087 192.878 165.666 192.733 166.17C192.411 167.327 190.927 174.448 189.145 175.162C187.362 175.876 183.283 174.826 183.283 174.826L170.861 159.37L170.903 159.011Z" fill="#FF725E"/>
<path d="M170.903 159.012C170.903 159.012 170.903 159.04 170.903 159.1C170.903 159.161 170.903 159.259 170.879 159.371C171.953 160.636 176.829 166.646 183.377 174.771L183.316 174.734C184.166 174.942 185.028 175.098 185.897 175.2C186.344 175.257 186.794 175.289 187.245 175.298C187.698 175.319 188.153 175.287 188.599 175.205C188.71 175.186 188.819 175.158 188.925 175.121C189.031 175.093 189.133 175.052 189.229 175C189.408 174.87 189.566 174.713 189.695 174.533C189.976 174.155 190.216 173.749 190.409 173.32C190.806 172.436 191.144 171.527 191.422 170.599C191.739 169.568 192.01 168.532 192.262 167.51C192.327 167.253 192.388 167.001 192.453 166.744L192.547 166.366L192.598 166.175C192.599 166.161 192.599 166.147 192.598 166.133C192.598 166.133 192.598 166.161 192.598 166.161C192.591 166.151 192.581 166.143 192.57 166.138C192.356 166.02 192.127 165.932 191.889 165.876C191.646 165.806 191.399 165.741 191.151 165.68C190.162 165.428 189.187 165.214 188.239 164.906C187.299 164.654 186.403 164.262 185.579 163.744C184.864 163.145 184.284 162.401 183.881 161.56C183.456 160.771 183.092 159.987 182.719 159.226C182.386 158.5 181.979 157.811 181.505 157.168C181.288 156.877 180.996 156.65 180.661 156.51C180.317 156.44 179.963 156.427 179.615 156.473C178.949 156.548 178.288 156.667 177.637 156.828C177.016 156.968 176.433 157.126 175.891 157.294C174.809 157.598 173.88 157.892 173.124 158.13L171.393 158.699C171.24 158.736 171.092 158.792 170.954 158.867C170.884 158.942 170.889 159.007 170.879 159.002C170.878 158.974 170.882 158.945 170.893 158.919C170.903 158.892 170.919 158.868 170.94 158.848C171.074 158.762 171.22 158.696 171.374 158.652C171.766 158.508 172.345 158.298 173.096 158.041C173.847 157.784 174.771 157.481 175.854 157.164C176.395 157.01 176.974 156.842 177.599 156.697C178.256 156.527 178.923 156.404 179.597 156.328C179.969 156.275 180.348 156.286 180.717 156.361C181.088 156.508 181.411 156.756 181.65 157.075C182.136 157.725 182.556 158.422 182.901 159.156C183.279 159.903 183.643 160.687 184.072 161.457C184.461 162.268 185.018 162.987 185.705 163.566C186.513 164.067 187.391 164.446 188.309 164.691C189.243 164.976 190.218 165.204 191.212 165.452C191.459 165.517 191.707 165.578 191.959 165.652C192.224 165.715 192.479 165.815 192.715 165.951C192.76 165.978 192.796 166.019 192.817 166.068C192.829 166.107 192.829 166.149 192.817 166.189C192.816 166.206 192.816 166.223 192.817 166.24L192.766 166.432L192.673 166.81C192.612 167.062 192.547 167.318 192.486 167.575C192.229 168.597 191.959 169.633 191.637 170.674C191.358 171.613 191.016 172.533 190.615 173.427C190.411 173.871 190.162 174.294 189.873 174.687C189.717 174.883 189.531 175.053 189.322 175.191C189.212 175.253 189.094 175.302 188.972 175.336C188.856 175.374 188.738 175.404 188.617 175.424C188.156 175.509 187.686 175.542 187.217 175.522C186.76 175.512 186.304 175.478 185.85 175.42C184.972 175.307 184.101 175.143 183.241 174.93H183.204L183.181 174.902C176.647 166.763 171.836 160.71 170.833 159.385C170.833 159.273 170.861 159.184 170.87 159.114C170.879 159.044 170.898 159.012 170.903 159.012Z" fill="#263238"/>
<path d="M170.865 159.371C170.945 159.332 171.03 159.303 171.117 159.287L171.85 159.087C172.489 158.919 173.413 158.662 174.547 158.331L178.537 157.178C178.934 157.055 179.35 157.003 179.765 157.024C180.216 157.068 180.632 157.287 180.922 157.635C181.194 157.983 181.426 158.36 181.613 158.76C181.813 159.157 182.005 159.558 182.201 159.964C182.555 160.767 182.96 161.547 183.414 162.297C183.838 162.983 184.38 163.588 185.015 164.085C186.142 164.863 187.41 165.414 188.748 165.709C189.891 165.993 190.829 166.175 191.469 166.381C191.786 166.469 192.029 166.549 192.197 166.609C192.282 166.632 192.363 166.667 192.439 166.712C192.352 166.703 192.266 166.684 192.183 166.656L191.445 166.474C190.801 166.315 189.863 166.143 188.706 165.872C187.329 165.603 186.021 165.056 184.861 164.267C184.205 163.747 183.647 163.115 183.213 162.4C182.754 161.649 182.343 160.87 181.981 160.067C181.785 159.656 181.599 159.255 181.398 158.867C181.221 158.483 181 158.119 180.74 157.785C180.49 157.482 180.131 157.29 179.741 157.248C179.355 157.229 178.968 157.277 178.598 157.388L174.594 158.489C173.451 158.802 172.522 159.031 171.873 159.175C171.551 159.245 171.299 159.301 171.127 159.329C171.042 159.355 170.954 159.369 170.865 159.371Z" fill="#263238"/>
<g opacity="0.2">
<path opacity="0.2" d="M215.992 146.534C215.992 146.534 216.566 144.723 219.459 144.606L220.36 144.074L229.026 143.953L225.246 147.943L221.247 150.099L225.073 159.838L214.699 151.107L215.992 146.534Z" fill="black"/>
</g>
<g opacity="0.2">
<path opacity="0.2" d="M208.637 141.143C208.609 141.423 208.437 146.085 209.468 146.957C210.141 147.578 210.626 148.375 210.868 149.258C210.868 149.258 205.735 145.795 206.285 143.905C206.68 142.713 207.524 141.722 208.637 141.143V141.143Z" fill="black"/>
</g>
<g opacity="0.2">
<path opacity="0.2" d="M189.663 158.088L192.556 152.954C192.956 152.241 193.608 151.703 194.385 151.447C195.865 150.952 198.207 150.07 198.235 149.417C198.277 148.46 195.543 143.934 195.543 143.934L197.587 144.942C197.587 144.942 198.357 144.965 200.485 147.63C201.113 148.373 201.494 149.295 201.572 150.266C197.433 152.606 193.455 155.219 189.663 158.088V158.088Z" fill="black"/>
</g>
<g opacity="0.2">
<path opacity="0.2" d="M180.185 153.721C180.185 153.721 180.577 154.85 180.399 154.953C180.221 155.08 180.052 155.22 179.895 155.373L184.17 155.545L180.031 156.339L178.976 155.032L178.757 153.777L180.185 153.721Z" fill="black"/>
</g>
<path d="M180.054 145.876C180.054 145.876 181.571 145.549 181.883 145.81C182.171 146.087 182.362 146.448 182.429 146.842C182.471 147.108 183.456 151.788 183.26 152.096C183.056 152.314 182.788 152.461 182.495 152.516L182.42 153.776L179.62 153.702C179.62 153.702 178.374 152.61 178.36 152.19C178.346 151.77 180.054 145.876 180.054 145.876Z" fill="#263238"/>
<path d="M177.725 153.567C177.725 153.567 179.415 148.079 179.429 148.023C179.443 147.967 179.223 146.791 179.223 146.791L175.863 151.21L175.901 152.144L176.703 153.74L177.725 153.567Z" fill="#FF725E"/>
<g opacity="0.3">
<path opacity="0.3" d="M177.725 153.567C177.725 153.567 179.415 148.079 179.429 148.023C179.443 147.967 179.223 146.791 179.223 146.791L175.863 151.21L175.901 152.144L176.703 153.74L177.725 153.567Z" fill="black"/>
</g>
<path d="M178.799 146.691C178.799 146.691 175.663 150.747 175.593 151.381C175.537 151.871 176.101 153.677 176.353 154.457C176.389 154.564 176.456 154.658 176.546 154.726C176.636 154.794 176.745 154.834 176.857 154.839L179.508 154.951C179.569 154.954 179.631 154.941 179.686 154.914C179.741 154.887 179.789 154.847 179.825 154.797C179.861 154.747 179.884 154.689 179.892 154.628C179.901 154.567 179.894 154.505 179.872 154.447L178.939 152.007L178.677 151.895C178.677 151.895 176.61 152.025 176.344 151.988C176.235 151.937 176.15 151.846 176.106 151.734C176.063 151.622 176.064 151.497 176.111 151.386C176.265 151.143 179.205 146.789 179.205 146.789L178.799 146.691Z" fill="#FF725E"/>
<path d="M178.799 146.692C178.944 146.702 179.087 146.725 179.228 146.762H179.27V146.8C178.99 147.266 178.397 148.167 177.581 149.408C177.371 149.721 177.156 150.052 176.923 150.398L176.568 150.934L176.386 151.214L176.288 151.354C176.258 151.392 176.235 151.435 176.218 151.48C176.162 151.611 176.321 151.896 176.447 151.877C176.675 151.877 176.913 151.877 177.17 151.877L178.705 151.788H178.733H178.761L179.023 151.9H179.065V151.952C179.237 152.418 179.419 152.885 179.606 153.352C179.695 153.594 179.788 153.842 179.881 154.089L179.956 154.276L179.989 154.369C180.004 154.411 180.015 154.455 180.021 154.5C180.029 154.59 180.012 154.681 179.973 154.764C179.934 154.846 179.873 154.916 179.797 154.966C179.682 155.034 179.547 155.06 179.415 155.041H179.097L178.467 155.013L177.235 154.962H176.932C176.816 154.964 176.701 154.94 176.596 154.892C176.488 154.839 176.396 154.758 176.33 154.658C176.297 154.609 176.27 154.556 176.251 154.5L176.204 154.36C176.087 153.986 175.975 153.622 175.873 153.263C175.77 152.904 175.677 152.554 175.602 152.204C175.561 152.031 175.53 151.857 175.509 151.681C175.497 151.591 175.497 151.5 175.509 151.41C175.519 151.315 175.546 151.222 175.588 151.135C175.883 150.59 176.216 150.068 176.587 149.572C177.24 148.638 177.8 147.934 178.187 147.439L178.654 146.874C178.757 146.753 178.822 146.683 178.827 146.692C178.789 146.768 178.744 146.84 178.691 146.907L178.271 147.495C177.907 148.008 177.371 148.746 176.736 149.67C176.39 150.164 176.078 150.682 175.803 151.219C175.77 151.283 175.749 151.353 175.742 151.424C175.735 151.502 175.735 151.58 175.742 151.658C175.764 151.826 175.796 151.992 175.835 152.157C175.915 152.498 176.013 152.843 176.115 153.202C176.218 153.562 176.335 153.916 176.456 154.29C176.476 154.373 176.507 154.453 176.549 154.528C176.594 154.593 176.655 154.646 176.727 154.682C176.905 154.727 177.089 154.746 177.273 154.738L178.505 154.789L179.135 154.812C179.34 154.812 179.601 154.868 179.695 154.789C179.732 154.763 179.763 154.728 179.782 154.687C179.802 154.646 179.81 154.601 179.807 154.556V154.49L179.769 154.397L179.699 154.21L179.419 153.473L178.887 152.05L178.948 152.12L178.691 152.003H178.743L177.203 152.082C176.951 152.082 176.713 152.082 176.461 152.082C176.419 152.088 176.376 152.088 176.335 152.082C176.298 152.062 176.264 152.039 176.232 152.012C176.179 151.964 176.135 151.907 176.101 151.844C176.063 151.782 176.038 151.713 176.028 151.64C176.017 151.568 176.022 151.495 176.041 151.424C176.066 151.363 176.099 151.305 176.139 151.252L176.237 151.112L176.423 150.836L176.787 150.304L177.459 149.324C178.304 148.097 178.929 147.206 179.242 146.776V146.823C179.091 146.79 178.943 146.746 178.799 146.692V146.692Z" fill="#263238"/>
<path d="M181.697 146.837C181.697 146.837 181.883 151.821 181.37 151.914C180.857 152.008 177.889 151.625 177.917 151.224C177.945 150.822 179.177 146.842 179.541 146.557C179.732 146.426 181.697 146.837 181.697 146.837Z" fill="#FAFAFA"/>
<path d="M189.383 166.348C189.166 166.858 188.91 167.351 188.617 167.822L187.726 169.4C187.549 169.694 187.399 169.997 187.171 170.333C186.931 170.653 186.608 170.902 186.237 171.052C185.864 171.185 185.466 171.239 185.071 171.21H184.011H182.21C181.655 171.224 181.1 171.197 180.549 171.131C181.099 171.06 181.655 171.029 182.21 171.038L184.007 171H185.071C185.436 171.026 185.803 170.977 186.149 170.856C186.485 170.724 186.778 170.503 186.998 170.216C187.194 169.936 187.371 169.605 187.549 169.325L188.482 167.785C188.748 167.285 189.049 166.805 189.383 166.348V166.348Z" fill="#263238"/>
<path opacity="0.2" d="M228.587 133.014L227.584 134.797L231.448 132.907L231.401 135.693L233.963 132.706L239.885 128.669L245.975 126.364H243.325L249.727 122.439L240.511 126.672L228.587 133.014Z" fill="black"/>
</svg>
