<svg id="svg" version="1.1" xmlns="http://www.w3.org/2000/svg" xmlns:xlink="http://www.w3.org/1999/xlink"
      viewBox="0, 0, 400,400">
  <g id="svgg">
    <path id="path0"
          d="M160.800 0.800 C 160.800 1.565,160.533 1.600,154.644 1.600 L 148.488 1.600 148.544 3.100 L 148.600 4.600 142.400 4.800 L 136.200 5.000 136.077 6.488 L 135.953 7.975 131.277 8.088 L 126.600 8.200 126.600 9.400 C 126.600 10.511,126.482 10.610,125.005 10.730 C 124.128 10.801,123.183 11.048,122.905 11.279 C 122.610 11.524,122.400 11.539,122.400 11.316 C 122.400 9.856,120.589 11.215,120.476 12.760 L 120.351 14.457 118.589 14.349 C 117.619 14.289,116.702 14.365,116.550 14.517 C 116.398 14.669,116.023 14.585,115.717 14.331 C 114.901 13.654,113.662 14.910,114.339 15.727 C 115.112 16.658,114.054 17.147,110.983 17.280 L 108.200 17.400 108.077 18.884 L 107.954 20.367 104.877 20.484 L 101.800 20.600 101.676 22.100 L 101.552 23.600 98.421 23.600 L 95.290 23.600 95.384 25.000 L 95.477 26.400 93.439 26.468 C 92.317 26.506,90.950 26.551,90.400 26.568 C 89.538 26.596,89.372 26.824,89.200 28.217 C 89.005 29.794,88.962 29.834,87.500 29.790 C 86.021 29.746,86.000 29.766,86.000 31.273 L 86.000 32.800 83.576 32.800 C 82.067 32.800,81.246 32.950,81.399 33.199 C 81.560 33.459,81.315 33.472,80.697 33.237 C 79.801 32.896,79.750 32.959,79.791 34.338 C 79.834 35.756,79.786 35.806,78.217 36.000 C 76.824 36.172,76.596 36.338,76.568 37.200 C 76.509 39.084,76.418 39.200,75.000 39.200 C 73.667 39.200,73.600 39.267,73.600 40.600 L 73.600 42.000 71.650 42.000 C 67.972 42.000,67.200 42.321,67.200 43.850 C 67.200 45.008,66.597 45.603,65.900 45.132 C 65.252 44.694,64.102 46.180,64.180 47.353 C 64.248 48.361,64.130 48.671,63.736 48.520 C 63.441 48.407,63.197 48.559,63.194 48.857 C 63.189 49.290,63.122 49.296,62.863 48.887 C 62.282 47.973,61.002 48.867,60.982 50.200 C 60.966 51.258,60.801 51.424,59.582 51.600 C 58.316 51.783,58.190 51.926,58.076 53.300 C 57.955 54.758,57.908 54.800,56.376 54.800 C 54.808 54.800,54.800 54.808,54.800 56.376 C 54.800 57.908,54.758 57.955,53.300 58.076 C 51.926 58.190,51.783 58.316,51.600 59.582 C 51.424 60.801,51.258 60.966,50.200 60.982 C 48.867 61.002,47.973 62.282,48.887 62.863 C 49.296 63.122,49.290 63.189,48.857 63.194 C 48.559 63.197,48.407 63.441,48.520 63.736 C 48.671 64.130,48.361 64.248,47.353 64.180 C 46.180 64.102,44.694 65.252,45.132 65.900 C 45.603 66.597,45.008 67.200,43.850 67.200 C 42.321 67.200,42.000 67.972,42.000 71.650 L 42.000 73.600 40.600 73.600 C 39.267 73.600,39.200 73.667,39.200 75.000 C 39.200 76.418,39.084 76.509,37.200 76.568 C 36.338 76.596,36.172 76.824,36.000 78.217 C 35.806 79.786,35.756 79.834,34.338 79.791 C 32.959 79.750,32.896 79.801,33.237 80.697 C 33.472 81.315,33.459 81.560,33.199 81.399 C 32.950 81.246,32.800 82.067,32.800 83.576 L 32.800 86.000 31.273 86.000 C 29.766 86.000,29.746 86.021,29.790 87.500 C 29.834 88.962,29.794 89.005,28.217 89.200 C 26.824 89.372,26.596 89.538,26.568 90.400 C 26.551 90.950,26.506 92.317,26.468 93.439 L 26.400 95.477 25.000 95.384 L 23.600 95.290 23.600 98.421 L 23.600 101.552 22.100 101.676 L 20.600 101.800 20.484 104.877 L 20.367 107.954 18.884 108.077 L 17.400 108.200 17.280 110.983 C 17.147 114.054,16.658 115.112,15.727 114.339 C 14.910 113.662,13.654 114.901,14.331 115.717 C 14.585 116.023,14.669 116.398,14.517 116.550 C 14.365 116.702,14.289 117.619,14.349 118.589 L 14.457 120.351 12.760 120.476 C 11.215 120.589,9.856 122.400,11.316 122.400 C 11.539 122.400,11.524 122.610,11.279 122.905 C 11.048 123.183,10.801 124.128,10.730 125.005 C 10.610 126.482,10.511 126.600,9.400 126.600 L 8.200 126.600 8.088 131.277 L 7.975 135.953 6.488 136.077 L 5.000 136.200 4.800 142.400 L 4.600 148.600 3.100 148.544 L 1.600 148.488 1.600 154.644 C 1.600 160.533,1.565 160.800,0.800 160.800 C 0.005 160.800,0.000 161.067,0.000 200.000 C 0.000 238.933,0.005 239.200,0.800 239.200 C 1.566 239.200,1.600 239.467,1.600 245.400 L 1.600 251.600 3.200 251.600 L 4.800 251.600 4.800 257.800 L 4.800 264.000 6.387 264.000 L 7.975 264.000 8.087 268.700 L 8.200 273.400 9.500 273.525 C 10.728 273.644,10.803 273.743,10.861 275.325 C 10.942 277.546,10.969 277.716,11.334 278.300 C 11.515 278.589,11.458 278.800,11.200 278.800 C 10.954 278.800,10.864 278.980,11.000 279.200 C 11.136 279.420,11.972 279.600,12.858 279.600 L 14.470 279.600 14.289 282.300 C 14.060 285.707,14.183 286.000,15.843 286.000 L 17.200 286.000 17.200 289.000 L 17.200 292.000 18.800 292.000 L 20.400 292.000 20.400 295.200 L 20.400 298.400 22.000 298.400 L 23.600 298.400 23.600 301.600 L 23.600 304.800 25.000 304.800 C 26.540 304.800,26.404 304.382,26.568 309.600 C 26.596 310.462,26.824 310.628,28.217 310.800 C 29.794 310.995,29.834 311.038,29.790 312.500 C 29.746 313.979,29.766 314.000,31.273 314.000 L 32.800 314.000 32.871 316.500 C 32.911 317.875,32.941 319.315,32.940 319.700 C 32.937 320.245,33.275 320.400,34.468 320.400 C 35.951 320.400,36.000 320.444,36.000 321.795 C 36.000 323.114,36.088 323.205,37.600 323.446 C 39.100 323.686,39.200 323.787,39.200 325.051 C 39.200 326.326,39.277 326.400,40.600 326.400 L 42.000 326.400 42.000 328.350 C 42.000 332.028,42.321 332.800,43.850 332.800 C 44.761 332.800,45.216 332.995,45.250 333.400 C 45.278 333.730,45.345 334.180,45.400 334.400 C 45.455 334.620,45.523 335.070,45.550 335.400 C 45.584 335.810,46.044 336.000,47.000 336.000 C 47.829 336.000,48.419 336.204,48.446 336.500 C 48.472 336.775,48.534 337.180,48.585 337.400 C 48.636 337.620,48.706 338.115,48.739 338.500 C 48.784 339.022,49.157 339.200,50.200 339.200 C 51.533 339.200,51.600 339.267,51.600 340.600 C 51.600 341.967,51.638 342.000,53.200 342.000 L 54.800 342.000 54.800 343.600 L 54.800 345.200 56.400 345.200 L 58.000 345.200 58.000 346.800 C 58.000 348.351,58.041 348.400,59.351 348.400 C 60.137 348.400,60.932 348.683,61.251 349.077 C 61.566 349.466,61.598 349.633,61.327 349.470 C 60.999 349.273,60.889 349.526,60.969 350.293 C 61.069 351.250,61.295 351.427,62.630 351.600 C 64.017 351.780,64.181 351.922,64.235 353.000 C 64.269 353.660,64.319 354.335,64.348 354.500 C 64.377 354.665,65.030 354.800,65.800 354.800 C 67.124 354.800,67.200 354.873,67.200 356.153 C 67.200 357.741,67.746 357.986,71.300 357.995 L 73.600 358.000 73.600 359.400 C 73.600 360.696,73.691 360.800,74.829 360.800 C 76.376 360.800,77.256 361.599,76.735 362.531 C 76.165 363.548,76.677 364.000,78.401 364.000 C 79.733 364.000,79.932 364.113,79.802 364.792 C 79.718 365.227,79.827 365.693,80.044 365.827 C 80.295 365.982,80.268 366.277,79.970 366.636 C 79.574 367.114,80.015 367.200,82.862 367.200 L 86.223 367.200 86.133 368.800 L 86.044 370.400 87.622 370.400 C 89.148 370.400,89.200 370.444,89.200 371.753 C 89.200 373.343,89.745 373.586,93.324 373.595 C 94.770 373.598,95.554 373.751,95.400 374.000 C 95.264 374.220,95.388 374.403,95.676 374.406 C 96.032 374.410,96.059 374.507,95.761 374.706 C 94.256 375.712,95.355 376.400,98.467 376.400 L 101.600 376.400 101.600 378.000 L 101.600 379.600 104.800 379.600 L 108.000 379.600 108.000 381.144 L 108.000 382.688 110.864 382.760 C 114.171 382.843,114.406 382.933,114.195 384.026 C 113.868 385.724,114.323 386.000,117.443 386.000 L 120.400 386.000 120.400 387.392 C 120.400 388.973,120.715 389.123,124.400 389.296 C 126.555 389.398,126.600 389.425,126.600 390.600 L 126.600 391.800 131.300 391.913 L 136.000 392.025 136.000 393.603 L 136.000 395.180 142.300 395.290 L 148.600 395.400 148.544 396.900 L 148.488 398.400 156.444 398.400 C 164.133 398.400,164.400 398.427,164.400 399.200 C 164.400 399.994,164.667 400.000,200.200 400.000 C 235.733 400.000,236.000 399.994,236.000 399.200 C 236.000 398.422,242.582 398.044,250.100 398.392 C 251.599 398.461,251.600 398.460,251.600 396.831 L 251.600 395.200 257.800 395.200 L 264.000 395.200 264.000 393.600 L 264.000 392.000 268.800 392.000 C 271.440 392.000,273.579 391.865,273.553 391.700 C 273.193 389.420,273.461 389.200,276.600 389.200 L 279.600 389.200 279.600 387.617 L 279.600 386.034 282.700 385.917 L 285.800 385.800 285.924 384.300 L 286.048 382.800 289.024 382.800 L 292.000 382.800 292.000 381.200 L 292.000 379.600 295.200 379.600 L 298.400 379.600 298.400 378.000 L 298.400 376.400 301.600 376.400 L 304.800 376.400 304.800 375.000 L 304.800 373.600 307.800 373.600 L 310.800 373.600 310.800 372.000 C 310.800 370.339,310.908 370.256,312.900 370.388 C 313.932 370.456,314.000 370.359,314.000 368.830 L 314.000 367.200 317.230 367.200 L 320.460 367.200 320.388 366.100 C 320.256 364.108,320.339 364.000,322.000 364.000 L 323.600 364.000 323.600 362.400 C 323.600 360.838,323.633 360.800,325.000 360.800 C 326.333 360.800,326.400 360.733,326.400 359.400 L 326.400 358.000 328.500 357.940 C 329.655 357.907,331.095 357.918,331.700 357.965 C 332.734 358.046,332.800 357.953,332.800 356.426 C 332.800 354.973,332.903 354.800,333.767 354.800 C 335.504 354.800,336.000 354.391,336.000 352.957 C 336.000 351.681,336.081 351.600,337.357 351.600 C 338.791 351.600,339.200 351.104,339.200 349.367 C 339.200 348.525,339.384 348.400,340.630 348.400 C 341.941 348.400,342.054 348.308,341.988 347.300 C 341.856 345.308,341.939 345.200,343.600 345.200 L 345.200 345.200 345.200 343.600 C 345.200 341.939,345.308 341.856,347.300 341.988 C 348.308 342.054,348.400 341.941,348.400 340.630 C 348.400 339.384,348.525 339.200,349.367 339.200 C 351.104 339.200,351.600 338.791,351.600 337.357 C 351.600 336.081,351.681 336.000,352.957 336.000 C 354.391 336.000,354.800 335.504,354.800 333.767 C 354.800 332.903,354.973 332.800,356.426 332.800 C 357.953 332.800,358.046 332.734,357.965 331.700 C 357.918 331.095,357.907 329.655,357.940 328.500 L 358.000 326.400 359.400 326.400 C 360.733 326.400,360.800 326.333,360.800 325.000 C 360.800 323.633,360.838 323.600,362.400 323.600 L 364.000 323.600 364.000 322.000 C 364.000 320.339,364.108 320.256,366.100 320.388 L 367.200 320.460 367.200 317.230 L 367.200 314.000 368.830 314.000 C 370.359 314.000,370.456 313.932,370.388 312.900 C 370.256 310.908,370.339 310.800,372.000 310.800 L 373.600 310.800 373.600 307.800 L 373.600 304.800 375.000 304.800 L 376.400 304.800 376.400 301.600 L 376.400 298.400 378.000 298.400 L 379.600 298.400 379.600 295.200 L 379.600 292.000 381.200 292.000 L 382.800 292.000 382.800 289.024 L 382.800 286.048 384.300 285.924 L 385.800 285.800 385.917 282.700 L 386.034 279.600 387.617 279.600 L 389.200 279.600 389.200 276.600 C 389.200 273.461,389.420 273.193,391.700 273.553 C 391.865 273.579,392.000 271.440,392.000 268.800 L 392.000 264.000 393.600 264.000 L 395.200 264.000 395.200 257.800 L 395.200 251.600 396.831 251.600 C 398.460 251.600,398.461 251.599,398.392 250.100 C 398.087 243.509,398.407 239.200,399.200 239.200 C 399.995 239.200,400.000 238.933,400.000 200.000 C 400.000 161.067,399.995 160.800,399.200 160.800 C 398.435 160.800,398.400 160.533,398.400 154.644 L 398.400 148.488 396.900 148.544 L 395.400 148.600 395.290 142.300 L 395.180 136.000 393.603 136.000 L 392.025 136.000 391.913 131.300 L 391.800 126.600 390.600 126.600 C 389.425 126.600,389.398 126.555,389.296 124.400 C 389.123 120.715,388.973 120.400,387.392 120.400 L 386.000 120.400 386.000 117.443 C 386.000 114.323,385.724 113.868,384.026 114.195 C 382.933 114.406,382.843 114.171,382.760 110.864 L 382.688 108.000 381.144 108.000 L 379.600 108.000 379.600 104.800 L 379.600 101.600 378.000 101.600 L 376.400 101.600 376.400 98.467 C 376.400 95.355,375.712 94.256,374.706 95.761 C 374.507 96.059,374.410 96.032,374.406 95.676 C 374.403 95.388,374.220 95.264,374.000 95.400 C 373.751 95.554,373.598 94.770,373.595 93.324 C 373.586 89.745,373.343 89.200,371.753 89.200 C 370.444 89.200,370.400 89.148,370.400 87.622 L 370.400 86.044 368.800 86.133 L 367.200 86.223 367.200 82.862 C 367.200 80.015,367.114 79.574,366.636 79.970 C 366.277 80.268,365.982 80.295,365.827 80.044 C 365.693 79.827,365.227 79.718,364.792 79.802 C 364.113 79.932,364.000 79.733,364.000 78.401 C 364.000 76.677,363.548 76.165,362.531 76.735 C 361.599 77.256,360.800 76.376,360.800 74.829 C 360.800 73.691,360.696 73.600,359.400 73.600 L 358.000 73.600 357.995 71.300 C 357.986 67.746,357.741 67.200,356.153 67.200 C 354.873 67.200,354.800 67.124,354.800 65.800 C 354.800 65.030,354.665 64.377,354.500 64.348 C 354.335 64.319,353.660 64.269,353.000 64.235 C 351.922 64.181,351.780 64.017,351.600 62.630 C 351.427 61.295,351.250 61.069,350.293 60.969 C 349.526 60.889,349.273 60.999,349.470 61.327 C 349.633 61.598,349.466 61.566,349.077 61.251 C 348.683 60.932,348.400 60.137,348.400 59.351 C 348.400 58.041,348.351 58.000,346.800 58.000 L 345.200 58.000 345.200 56.400 L 345.200 54.800 343.600 54.800 L 342.000 54.800 342.000 53.200 C 342.000 51.638,341.967 51.600,340.600 51.600 C 339.267 51.600,339.200 51.533,339.200 50.200 C 339.200 49.157,339.022 48.784,338.500 48.739 C 338.115 48.706,337.620 48.636,337.400 48.585 C 337.180 48.534,336.775 48.472,336.500 48.446 C 336.204 48.419,336.000 47.829,336.000 47.000 C 336.000 46.044,335.810 45.584,335.400 45.550 C 335.070 45.523,334.620 45.455,334.400 45.400 C 334.180 45.345,333.730 45.278,333.400 45.250 C 332.995 45.216,332.800 44.761,332.800 43.850 C 332.800 42.321,332.028 42.000,328.350 42.000 L 326.400 42.000 326.400 40.600 C 326.400 39.277,326.326 39.200,325.051 39.200 C 323.787 39.200,323.686 39.100,323.446 37.600 C 323.205 36.088,323.114 36.000,321.795 36.000 C 320.444 36.000,320.400 35.951,320.400 34.468 C 320.400 33.275,320.245 32.937,319.700 32.940 C 319.315 32.941,317.875 32.911,316.500 32.871 L 314.000 32.800 314.000 31.273 C 314.000 29.766,313.979 29.746,312.500 29.790 C 311.038 29.834,310.995 29.794,310.800 28.217 C 310.628 26.824,310.462 26.596,309.600 26.568 C 304.382 26.404,304.800 26.540,304.800 25.000 L 304.800 23.600 301.600 23.600 L 298.400 23.600 298.400 22.000 L 298.400 20.400 295.200 20.400 L 292.000 20.400 292.000 18.800 L 292.000 17.200 289.000 17.200 L 286.000 17.200 286.000 15.843 C 286.000 14.183,285.707 14.060,282.300 14.289 L 279.600 14.470 279.600 12.858 C 279.600 11.972,279.420 11.136,279.200 11.000 C 278.980 10.864,278.800 10.954,278.800 11.200 C 278.800 11.458,278.589 11.515,278.300 11.334 C 277.716 10.969,277.546 10.942,275.325 10.861 C 273.743 10.803,273.644 10.728,273.525 9.500 L 273.400 8.200 268.700 8.087 L 264.000 7.975 264.000 6.387 L 264.000 4.800 257.800 4.800 L 251.600 4.800 251.600 3.200 L 251.600 1.600 245.400 1.600 C 239.467 1.600,239.200 1.566,239.200 0.800 C 239.200 0.005,238.933 0.000,200.000 0.000 C 161.067 0.000,160.800 0.005,160.800 0.800 M201.600 77.987 L 201.600 79.575 206.287 79.687 L 210.974 79.800 211.002 81.200 C 211.034 82.737,210.872 82.678,215.300 82.763 L 217.200 82.800 217.200 84.400 L 217.200 86.000 220.400 86.000 L 223.600 86.000 223.600 87.539 L 223.600 89.079 226.490 89.163 C 229.857 89.261,229.550 89.113,229.672 90.706 C 229.758 91.835,229.897 91.966,230.984 91.934 C 231.653 91.914,233.055 91.921,234.100 91.949 L 236.000 92.000 236.000 93.600 L 236.000 95.200 238.965 95.200 L 241.930 95.200 242.200 96.800 L 242.470 98.400 247.035 98.400 L 251.600 98.400 251.600 100.000 L 251.600 101.600 254.800 101.600 L 258.000 101.600 258.000 103.200 L 258.000 104.800 260.951 104.800 C 263.240 104.800,264.025 104.952,264.451 105.477 C 264.827 105.940,264.842 106.058,264.499 105.852 C 264.140 105.637,264.046 105.814,264.169 106.476 C 264.263 106.984,264.354 107.547,264.370 107.726 C 264.387 107.905,264.895 108.013,265.500 107.965 C 269.472 107.655,270.400 107.920,270.400 109.364 L 270.400 110.727 273.219 110.754 C 276.293 110.783,277.400 111.342,276.735 112.531 C 276.042 113.768,276.779 114.000,281.399 114.000 L 285.952 114.000 286.076 115.500 L 286.200 117.000 289.068 117.117 L 291.935 117.234 292.203 118.817 C 292.458 120.327,292.539 120.400,293.947 120.400 C 295.389 120.400,295.424 120.435,295.412 121.900 C 295.400 123.347,295.453 123.404,296.897 123.524 L 298.394 123.648 298.497 175.170 L 298.600 226.692 297.400 226.707 C 296.740 226.715,296.008 226.739,295.773 226.761 C 295.538 226.782,295.335 227.385,295.321 228.100 C 295.307 228.815,295.274 230.885,295.248 232.700 L 295.200 236.000 293.825 236.000 C 292.310 236.000,291.695 237.741,292.072 240.966 C 292.160 241.724,292.109 242.267,291.957 242.174 C 291.806 242.080,291.131 242.114,290.457 242.249 L 289.232 242.494 289.116 245.547 L 289.000 248.600 287.500 248.544 C 286.014 248.489,286.000 248.503,286.000 250.044 C 286.000 251.634,285.496 251.925,283.268 251.623 C 282.940 251.578,282.765 251.905,282.812 252.475 C 282.854 252.984,282.869 254.435,282.844 255.700 L 282.800 258.000 281.285 258.000 C 279.874 258.000,279.764 258.086,279.675 259.255 C 279.545 260.952,279.420 261.084,278.016 261.001 C 276.780 260.927,276.655 261.101,276.785 262.701 C 276.860 263.634,276.505 263.890,274.800 264.133 C 273.974 264.250,273.779 264.525,273.677 265.715 C 273.563 267.059,273.457 267.163,272.077 267.277 C 270.689 267.393,270.593 267.489,270.477 268.877 C 270.362 270.265,270.265 270.362,268.877 270.477 C 267.485 270.593,267.393 270.686,267.276 272.100 L 267.152 273.600 264.049 273.600 L 260.946 273.600 261.056 275.000 C 261.169 276.436,261.083 276.509,259.200 276.568 C 258.340 276.596,258.172 276.825,258.000 278.200 C 257.806 279.751,257.754 279.799,256.300 279.780 C 254.826 279.761,254.800 279.788,254.800 281.280 C 254.800 282.867,254.615 282.989,252.475 282.812 C 251.905 282.765,251.578 282.940,251.623 283.268 C 251.662 283.561,251.673 284.295,251.647 284.900 L 251.600 286.000 248.478 286.000 C 245.513 286.000,245.354 286.045,245.334 286.900 C 245.282 289.129,245.237 289.200,243.850 289.200 C 242.478 289.200,241.535 290.924,242.264 292.103 C 242.407 292.334,242.334 292.407,242.103 292.264 C 240.924 291.535,239.200 292.478,239.200 293.850 C 239.200 295.237,239.129 295.282,236.900 295.334 C 236.128 295.352,236.000 295.572,236.000 296.878 L 236.000 298.400 233.900 298.447 C 232.745 298.473,231.658 298.471,231.484 298.442 C 230.603 298.295,229.726 299.244,229.784 300.282 C 229.842 301.303,229.707 301.417,228.224 301.600 C 226.823 301.773,226.596 301.937,226.568 302.800 C 226.509 304.684,226.418 304.800,225.000 304.800 C 223.636 304.800,223.600 304.840,223.600 306.383 L 223.600 307.966 220.500 308.083 L 217.400 308.200 217.200 309.600 C 217.018 310.877,216.886 310.998,215.700 310.981 C 214.985 310.970,214.377 311.060,214.348 311.181 C 214.319 311.301,214.268 311.886,214.235 312.480 C 214.158 313.836,213.836 314.158,212.480 314.235 C 211.886 314.268,211.301 314.319,211.181 314.348 C 211.060 314.377,210.970 314.985,210.981 315.700 C 210.998 316.886,210.877 317.018,209.600 317.200 C 208.317 317.383,208.190 317.524,208.077 318.884 L 207.954 320.367 204.877 320.484 L 201.800 320.600 201.676 322.100 C 201.475 324.532,198.400 324.438,198.400 322.000 L 198.400 320.400 195.200 320.400 L 192.000 320.400 192.000 318.800 C 192.000 317.238,191.967 317.200,190.600 317.200 C 189.267 317.200,189.200 317.133,189.200 315.800 C 189.200 315.030,189.065 314.377,188.900 314.348 C 188.735 314.319,188.060 314.269,187.400 314.235 C 186.317 314.181,186.180 314.021,186.000 312.599 C 185.815 311.143,185.704 311.022,184.522 311.001 C 182.940 310.972,182.758 310.795,182.714 309.241 L 182.678 308.000 179.539 308.000 L 176.400 308.000 176.400 306.400 C 176.400 304.850,176.358 304.800,175.051 304.800 C 173.787 304.800,173.686 304.700,173.446 303.200 C 173.205 301.688,173.114 301.600,171.795 301.600 C 170.467 301.600,170.400 301.532,170.400 300.200 C 170.400 299.157,170.222 298.784,169.700 298.739 C 169.315 298.706,168.820 298.636,168.600 298.585 C 168.380 298.534,167.975 298.472,167.700 298.446 C 167.404 298.419,167.200 297.829,167.200 297.000 C 167.200 296.044,167.010 295.584,166.600 295.550 C 166.270 295.522,165.820 295.455,165.600 295.400 C 165.380 295.345,164.210 295.278,163.000 295.250 L 160.800 295.200 160.800 293.845 C 160.800 292.620,160.669 292.464,159.443 292.234 C 158.282 292.017,158.048 291.779,157.824 290.590 C 157.587 289.322,157.443 289.200,156.182 289.200 C 154.824 289.200,154.498 288.564,154.730 286.369 C 154.743 286.242,153.387 286.109,151.716 286.074 C 148.189 286.000,148.209 286.012,148.334 284.155 C 148.418 282.900,148.325 282.747,147.515 282.814 C 145.385 282.988,145.200 282.865,145.200 281.280 C 145.200 279.788,145.174 279.761,143.700 279.780 C 142.246 279.799,142.194 279.751,142.000 278.200 C 141.818 276.746,141.703 276.610,140.730 276.710 C 139.488 276.839,139.256 276.570,139.125 274.855 L 139.030 273.600 135.915 273.600 L 132.800 273.600 132.800 272.000 L 132.800 270.400 131.200 270.400 L 129.600 270.400 129.600 268.800 C 129.600 267.204,129.596 267.200,128.024 267.200 C 126.492 267.200,126.445 267.158,126.324 265.700 C 126.255 264.869,125.977 264.178,125.700 264.150 C 125.425 264.123,124.851 264.078,124.424 264.050 C 123.829 264.012,123.619 263.654,123.524 262.512 C 123.407 261.106,123.322 261.022,122.000 261.000 C 120.678 260.978,120.593 260.894,120.476 259.488 C 120.355 258.043,120.306 258.000,118.776 258.000 L 117.200 258.000 117.200 254.770 L 117.200 251.540 116.100 251.612 C 114.115 251.743,114.000 251.657,114.000 250.044 C 114.000 248.503,113.986 248.489,112.500 248.544 L 111.000 248.600 110.884 245.541 L 110.768 242.483 109.384 242.223 C 108.017 241.967,108.000 241.938,107.995 239.882 C 107.986 236.558,107.721 236.000,106.153 236.000 L 104.800 236.000 104.800 231.400 C 104.800 228.008,104.669 226.790,104.300 226.761 C 104.025 226.739,103.350 226.694,102.800 226.661 L 101.800 226.600 101.698 175.100 L 101.597 123.600 102.425 123.600 C 103.912 123.600,104.800 122.847,104.800 121.586 C 104.800 120.538,104.938 120.400,105.986 120.400 C 107.247 120.400,108.000 119.512,108.000 118.026 C 108.000 117.265,108.235 117.200,111.000 117.200 L 114.000 117.200 114.000 115.600 L 114.000 114.000 118.800 114.000 L 123.600 114.000 123.600 112.400 L 123.600 110.800 125.500 110.758 C 126.545 110.734,127.895 110.748,128.500 110.788 C 129.508 110.854,129.600 110.741,129.600 109.430 L 129.600 108.000 132.026 108.000 C 135.082 108.000,136.000 107.535,136.000 105.986 L 136.000 104.800 139.000 104.800 L 142.000 104.800 142.000 103.200 L 142.000 101.600 145.242 101.600 L 148.484 101.600 148.331 100.000 L 148.179 98.400 153.136 98.400 L 158.093 98.400 157.888 97.325 C 157.524 95.420,157.849 95.200,161.043 95.200 L 164.000 95.200 164.000 93.600 L 164.000 92.000 167.200 92.000 L 170.400 92.000 170.400 90.600 L 170.400 89.200 173.400 89.200 L 176.400 89.200 176.400 87.600 L 176.400 86.000 179.600 86.000 L 182.800 86.000 182.800 84.400 L 182.800 82.800 187.400 82.800 L 192.000 82.800 192.000 81.200 L 192.000 79.600 195.200 79.600 L 198.400 79.600 198.400 78.000 L 198.400 76.400 200.000 76.400 C 201.598 76.400,201.600 76.402,201.600 77.987 M195.384 90.600 L 195.477 92.000 193.589 92.000 C 189.975 92.000,189.200 92.327,189.200 93.850 L 189.200 95.200 186.976 95.200 C 185.304 95.200,184.827 95.324,185.053 95.700 C 185.289 96.092,185.226 96.097,184.763 95.723 C 183.997 95.103,183.000 95.703,183.337 96.580 C 183.486 96.968,183.427 97.141,183.195 96.997 C 182.978 96.863,182.800 97.123,182.800 97.576 C 182.800 98.298,182.552 98.400,180.800 98.400 C 179.470 98.400,178.798 98.567,178.794 98.900 C 178.789 99.268,178.697 99.257,178.444 98.857 C 177.773 97.799,176.399 98.694,176.663 100.016 C 176.960 101.499,176.827 101.543,171.600 101.686 L 167.400 101.800 167.276 103.300 L 167.152 104.800 164.018 104.800 C 160.927 104.800,160.885 104.814,160.942 105.800 C 160.974 106.350,161.157 106.800,161.349 106.800 C 161.541 106.800,161.474 107.070,161.200 107.400 C 160.840 107.834,159.886 108.000,157.751 108.000 L 154.800 108.000 154.800 109.400 C 154.800 110.774,154.769 110.801,153.100 110.840 C 149.327 110.930,149.001 110.998,148.687 111.769 C 148.488 112.258,148.561 112.655,148.887 112.863 C 149.296 113.122,149.290 113.189,148.857 113.194 C 148.530 113.198,148.410 113.449,148.554 113.825 C 148.761 114.364,148.370 114.432,145.697 114.325 L 142.600 114.200 142.233 115.684 L 141.867 117.168 139.033 117.284 L 136.200 117.400 136.077 118.888 L 135.953 120.375 131.277 120.488 L 126.600 120.600 126.568 121.600 C 126.505 123.617,126.532 123.600,123.400 123.600 L 120.400 123.600 120.400 125.000 C 120.400 126.491,119.814 126.673,115.500 126.521 C 114.895 126.500,114.397 126.689,114.394 126.941 C 114.391 127.193,114.346 150.395,114.294 178.500 L 114.200 229.600 115.700 229.600 L 117.200 229.600 117.200 234.157 C 117.200 239.056,117.264 239.200,119.433 239.200 C 120.337 239.200,120.701 240.096,120.447 241.700 C 120.421 241.865,121.120 242.000,122.000 242.000 L 123.600 242.000 123.600 245.176 L 123.600 248.352 125.100 248.476 C 126.524 248.594,126.600 248.671,126.600 250.000 C 126.600 251.297,126.693 251.403,127.869 251.440 C 128.970 251.475,131.109 252.800,130.064 252.800 C 129.848 252.800,129.731 253.115,129.805 253.500 C 129.878 253.885,129.953 254.335,129.969 254.500 C 129.986 254.665,130.695 254.800,131.545 254.800 C 132.949 254.800,133.073 254.885,132.910 255.737 C 132.688 256.900,133.718 258.000,135.029 258.000 C 135.872 258.000,136.000 258.184,136.000 259.400 C 136.000 260.767,136.038 260.800,137.600 260.800 L 139.200 260.800 139.200 262.400 C 139.200 263.954,139.239 264.000,140.565 264.000 C 141.845 264.000,141.946 264.099,142.200 265.600 C 142.454 267.101,142.555 267.200,143.835 267.200 C 144.759 267.200,145.216 267.394,145.250 267.800 C 145.278 268.130,145.322 268.805,145.350 269.300 C 145.397 270.141,145.604 270.208,148.500 270.317 L 151.600 270.434 151.600 271.812 C 151.600 273.111,151.692 273.205,153.200 273.446 C 154.700 273.686,154.800 273.787,154.800 275.051 C 154.800 276.358,154.850 276.400,156.400 276.400 L 158.000 276.400 158.000 278.045 C 158.000 279.651,158.029 279.687,159.218 279.512 C 160.602 279.309,160.965 279.692,161.004 281.400 C 161.033 282.705,160.953 282.679,165.300 282.763 L 167.200 282.800 167.200 284.400 L 167.200 286.000 168.800 286.000 C 170.352 286.000,170.400 286.040,170.400 287.357 C 170.400 288.791,170.896 289.200,172.633 289.200 C 173.472 289.200,173.600 289.386,173.600 290.600 L 173.600 292.000 176.710 292.000 L 179.820 292.000 179.774 293.600 C 179.728 295.197,179.731 295.200,181.264 295.200 C 182.870 295.200,182.990 295.381,182.811 297.534 C 182.746 298.326,182.906 298.456,183.867 298.391 C 185.895 298.255,186.000 298.334,186.000 300.000 L 186.000 301.600 187.600 301.600 L 189.200 301.600 189.200 303.200 L 189.200 304.800 192.340 304.800 L 195.480 304.800 195.440 306.300 C 195.406 307.586,195.535 307.819,196.344 307.934 C 196.992 308.025,197.197 307.918,196.996 307.594 C 196.775 307.235,196.903 307.227,197.525 307.560 C 200.024 308.897,204.800 307.864,204.800 305.986 L 204.800 304.800 207.800 304.800 L 210.800 304.800 210.800 303.200 L 210.800 301.600 212.400 301.600 L 214.000 301.600 214.000 299.857 L 214.000 298.114 215.600 298.235 L 217.200 298.356 217.200 296.778 C 217.200 295.204,217.204 295.200,218.800 295.200 L 220.400 295.200 220.400 293.600 L 220.400 292.000 223.400 292.000 L 226.400 292.000 226.400 290.600 C 226.400 289.233,226.438 289.200,228.000 289.200 L 229.600 289.200 229.600 287.600 L 229.600 286.000 231.200 286.000 L 232.800 286.000 232.800 284.400 L 232.800 282.800 236.000 282.800 L 239.200 282.800 239.200 281.200 C 239.200 279.632,239.228 279.600,240.630 279.600 C 241.941 279.600,242.054 279.508,241.988 278.500 C 241.856 276.508,241.939 276.400,243.600 276.400 C 245.162 276.400,245.200 276.367,245.200 275.000 C 245.200 273.633,245.238 273.600,246.800 273.600 L 248.400 273.600 248.400 272.000 L 248.400 270.400 251.120 270.400 C 254.119 270.400,254.800 270.019,254.800 268.344 C 254.800 267.367,254.962 267.235,256.300 267.124 C 257.586 267.018,257.806 266.857,257.843 266.000 C 257.927 264.077,257.987 264.000,259.400 264.000 C 260.767 264.000,260.800 263.962,260.800 262.400 L 260.800 260.800 262.400 260.800 C 263.962 260.800,264.000 260.767,264.000 259.400 C 264.000 257.987,264.077 257.927,266.000 257.843 C 266.857 257.806,267.018 257.586,267.124 256.300 C 267.235 254.962,267.367 254.800,268.344 254.800 C 269.742 254.800,270.400 254.135,270.400 252.720 C 270.400 251.707,270.534 251.600,271.795 251.600 C 273.114 251.600,273.205 251.512,273.446 250.000 C 273.686 248.500,273.787 248.400,275.051 248.400 L 276.400 248.400 276.400 245.200 C 276.400 241.819,276.381 241.848,278.500 241.988 C 279.508 242.054,279.600 241.941,279.600 240.630 C 279.600 239.228,279.632 239.200,281.200 239.200 L 282.800 239.200 282.800 234.400 L 282.800 229.600 284.402 229.600 L 286.003 229.600 285.902 178.138 L 285.800 126.676 283.000 126.534 C 279.386 126.350,279.294 126.306,279.509 124.837 L 279.691 123.600 276.697 123.600 L 273.702 123.600 273.454 122.046 L 273.205 120.493 268.716 120.426 C 263.609 120.350,263.808 120.426,263.931 118.603 L 264.023 117.234 260.911 117.117 L 257.800 117.000 257.926 115.700 C 257.995 114.985,257.905 114.387,257.726 114.370 C 257.547 114.354,256.984 114.263,256.476 114.169 C 255.848 114.053,255.643 114.146,255.837 114.461 C 256.031 114.773,255.946 114.814,255.578 114.586 C 255.278 114.401,254.271 114.296,253.341 114.353 L 251.649 114.457 251.524 112.771 C 251.413 111.259,251.286 111.073,250.293 110.969 C 249.534 110.890,249.269 111.002,249.451 111.327 C 249.632 111.648,249.545 111.640,249.179 111.300 C 248.882 111.025,247.866 110.800,246.920 110.800 C 245.221 110.800,245.200 110.783,245.200 109.400 L 245.200 108.000 242.200 108.000 L 239.200 108.000 239.153 106.700 C 239.127 105.985,239.127 105.265,239.153 105.100 C 239.179 104.935,237.760 104.800,236.000 104.800 L 232.800 104.800 232.800 103.170 C 232.800 101.641,232.732 101.544,231.700 101.612 C 231.095 101.652,229.025 101.666,227.100 101.642 L 223.600 101.600 223.600 100.227 C 223.600 98.928,222.877 98.230,221.741 98.434 C 221.554 98.467,220.455 98.473,219.300 98.447 L 217.200 98.400 217.200 97.000 C 217.200 96.044,217.010 95.584,216.600 95.550 C 216.270 95.523,215.820 95.455,215.600 95.400 C 215.380 95.345,214.210 95.278,213.000 95.250 L 210.800 95.200 210.800 93.850 C 210.800 92.340,210.019 92.000,206.550 92.000 C 204.817 92.000,204.800 91.987,204.800 90.600 L 204.800 89.200 200.045 89.200 L 195.290 89.200 195.384 90.600 "
          stroke="none" fill="#6c7cfc" fill-rule="evenodd"></path>
    <path id="path1"
          d="M117.900 14.282 C 118.395 14.378,119.205 14.378,119.700 14.282 C 120.195 14.187,119.790 14.109,118.800 14.109 C 117.810 14.109,117.405 14.187,117.900 14.282 M280.300 14.282 C 280.795 14.378,281.605 14.378,282.100 14.282 C 282.595 14.187,282.190 14.109,281.200 14.109 C 280.210 14.109,279.805 14.187,280.300 14.282 M182.934 95.827 C 182.802 96.172,182.908 96.667,183.171 96.927 C 183.539 97.292,183.583 97.231,183.365 96.660 C 183.190 96.200,183.295 95.785,183.642 95.566 C 184.059 95.301,184.071 95.211,183.687 95.206 C 183.406 95.203,183.067 95.482,182.934 95.827 M146.105 114.287 C 146.714 114.379,147.614 114.377,148.105 114.282 C 148.597 114.187,148.100 114.111,147.000 114.114 C 145.900 114.117,145.497 114.195,146.105 114.287 M252.300 114.282 C 252.795 114.378,253.605 114.378,254.100 114.282 C 254.595 114.187,254.190 114.109,253.200 114.109 C 252.210 114.109,251.805 114.187,252.300 114.282 M14.109 118.800 C 14.109 119.790,14.187 120.195,14.282 119.700 C 14.378 119.205,14.378 118.395,14.282 117.900 C 14.187 117.405,14.109 117.810,14.109 118.800 M114.194 178.400 C 114.194 205.350,114.242 216.375,114.300 202.900 C 114.358 189.425,114.358 167.375,114.300 153.900 C 114.242 140.425,114.194 151.450,114.194 178.400 M14.109 281.200 C 14.109 282.190,14.187 282.595,14.282 282.100 C 14.378 281.605,14.378 280.795,14.282 280.300 C 14.187 279.805,14.109 280.210,14.109 281.200 "
          stroke="none" fill="#707cfc" fill-rule="evenodd"></path>
    <path id="path2"
          d="M117.900 14.282 C 118.395 14.378,119.205 14.378,119.700 14.282 C 120.195 14.187,119.790 14.109,118.800 14.109 C 117.810 14.109,117.405 14.187,117.900 14.282 M280.300 14.282 C 280.795 14.378,281.605 14.378,282.100 14.282 C 282.595 14.187,282.190 14.109,281.200 14.109 C 280.210 14.109,279.805 14.187,280.300 14.282 M182.934 95.827 C 182.802 96.172,182.908 96.667,183.171 96.927 C 183.539 97.292,183.583 97.231,183.365 96.660 C 183.190 96.200,183.295 95.785,183.642 95.566 C 184.059 95.301,184.071 95.211,183.687 95.206 C 183.406 95.203,183.067 95.482,182.934 95.827 M146.105 114.287 C 146.714 114.379,147.614 114.377,148.105 114.282 C 148.597 114.187,148.100 114.111,147.000 114.114 C 145.900 114.117,145.497 114.195,146.105 114.287 M252.300 114.282 C 252.795 114.378,253.605 114.378,254.100 114.282 C 254.595 114.187,254.190 114.109,253.200 114.109 C 252.210 114.109,251.805 114.187,252.300 114.282 M14.109 118.800 C 14.109 119.790,14.187 120.195,14.282 119.700 C 14.378 119.205,14.378 118.395,14.282 117.900 C 14.187 117.405,14.109 117.810,14.109 118.800 M114.194 178.400 C 114.194 205.350,114.242 216.375,114.300 202.900 C 114.358 189.425,114.358 167.375,114.300 153.900 C 114.242 140.425,114.194 151.450,114.194 178.400 M14.109 281.200 C 14.109 282.190,14.187 282.595,14.282 282.100 C 14.378 281.605,14.378 280.795,14.282 280.300 C 14.187 279.805,14.109 280.210,14.109 281.200 "
          stroke="none" fill="#707cfc" fill-rule="evenodd"></path>
    <path id="path3"
          d="M117.900 14.282 C 118.395 14.378,119.205 14.378,119.700 14.282 C 120.195 14.187,119.790 14.109,118.800 14.109 C 117.810 14.109,117.405 14.187,117.900 14.282 M280.300 14.282 C 280.795 14.378,281.605 14.378,282.100 14.282 C 282.595 14.187,282.190 14.109,281.200 14.109 C 280.210 14.109,279.805 14.187,280.300 14.282 M182.934 95.827 C 182.802 96.172,182.908 96.667,183.171 96.927 C 183.539 97.292,183.583 97.231,183.365 96.660 C 183.190 96.200,183.295 95.785,183.642 95.566 C 184.059 95.301,184.071 95.211,183.687 95.206 C 183.406 95.203,183.067 95.482,182.934 95.827 M146.105 114.287 C 146.714 114.379,147.614 114.377,148.105 114.282 C 148.597 114.187,148.100 114.111,147.000 114.114 C 145.900 114.117,145.497 114.195,146.105 114.287 M252.300 114.282 C 252.795 114.378,253.605 114.378,254.100 114.282 C 254.595 114.187,254.190 114.109,253.200 114.109 C 252.210 114.109,251.805 114.187,252.300 114.282 M14.109 118.800 C 14.109 119.790,14.187 120.195,14.282 119.700 C 14.378 119.205,14.378 118.395,14.282 117.900 C 14.187 117.405,14.109 117.810,14.109 118.800 M114.194 178.400 C 114.194 205.350,114.242 216.375,114.300 202.900 C 114.358 189.425,114.358 167.375,114.300 153.900 C 114.242 140.425,114.194 151.450,114.194 178.400 M14.109 281.200 C 14.109 282.190,14.187 282.595,14.282 282.100 C 14.378 281.605,14.378 280.795,14.282 280.300 C 14.187 279.805,14.109 280.210,14.109 281.200 "
          stroke="none" fill="#707cfc" fill-rule="evenodd"></path>
    <path id="path4"
          d="M117.900 14.282 C 118.395 14.378,119.205 14.378,119.700 14.282 C 120.195 14.187,119.790 14.109,118.800 14.109 C 117.810 14.109,117.405 14.187,117.900 14.282 M280.300 14.282 C 280.795 14.378,281.605 14.378,282.100 14.282 C 282.595 14.187,282.190 14.109,281.200 14.109 C 280.210 14.109,279.805 14.187,280.300 14.282 M182.934 95.827 C 182.802 96.172,182.908 96.667,183.171 96.927 C 183.539 97.292,183.583 97.231,183.365 96.660 C 183.190 96.200,183.295 95.785,183.642 95.566 C 184.059 95.301,184.071 95.211,183.687 95.206 C 183.406 95.203,183.067 95.482,182.934 95.827 M146.105 114.287 C 146.714 114.379,147.614 114.377,148.105 114.282 C 148.597 114.187,148.100 114.111,147.000 114.114 C 145.900 114.117,145.497 114.195,146.105 114.287 M252.300 114.282 C 252.795 114.378,253.605 114.378,254.100 114.282 C 254.595 114.187,254.190 114.109,253.200 114.109 C 252.210 114.109,251.805 114.187,252.300 114.282 M14.109 118.800 C 14.109 119.790,14.187 120.195,14.282 119.700 C 14.378 119.205,14.378 118.395,14.282 117.900 C 14.187 117.405,14.109 117.810,14.109 118.800 M114.194 178.400 C 114.194 205.350,114.242 216.375,114.300 202.900 C 114.358 189.425,114.358 167.375,114.300 153.900 C 114.242 140.425,114.194 151.450,114.194 178.400 M14.109 281.200 C 14.109 282.190,14.187 282.595,14.282 282.100 C 14.378 281.605,14.378 280.795,14.282 280.300 C 14.187 279.805,14.109 280.210,14.109 281.200 "
          stroke="none" fill="#707cfc" fill-rule="evenodd"></path>
  </g>
</svg>
