<svg width="36" height="46" viewBox="0 0 36 46" fill="none" xmlns="http://www.w3.org/2000/svg">
<path d="M24.4168 45.5357H0.805664V20.5703L5.93602 12.8748L7.36112 2.89573C7.47933 2.09343 7.88124 1.36009 8.49392 0.828795C9.1066 0.297495 9.88945 0.00344256 10.7004 0H10.9247C12.2662 0.00133945 13.5523 0.534825 14.5009 1.48338C15.4494 2.43193 15.9829 3.71807 15.9842 5.05952V15.1786H29.4763C31.2648 15.1808 32.9794 15.8923 34.244 17.1569C35.5086 18.4215 36.2201 20.1361 36.2223 21.9246V33.7302C36.2188 36.8601 34.9738 39.8608 32.7606 42.074C30.5474 44.2872 27.5467 45.5321 24.4168 45.5357Z" fill="#6B7CFF"/>
</svg>
