<svg  stroke="#878787" width="20" height="21" viewBox="0 0 20 21" fill="none" xmlns="http://www.w3.org/2000/svg">
<path d="M16 1.5C15.2044 1.5 14.4413 1.81607 13.8787 2.37868C13.3161 2.94129 13 3.70435 13 4.5V16.5C13 17.2956 13.3161 18.0587 13.8787 18.6213C14.4413 19.1839 15.2044 19.5 16 19.5C16.7956 19.5 17.5587 19.1839 18.1213 18.6213C18.6839 18.0587 19 17.2956 19 16.5C19 15.7044 18.6839 14.9413 18.1213 14.3787C17.5587 13.8161 16.7956 13.5 16 13.5H4C3.20435 13.5 2.44129 13.8161 1.87868 14.3787C1.31607 14.9413 1 15.7044 1 16.5C1 17.2956 1.31607 18.0587 1.87868 18.6213C2.44129 19.1839 3.20435 19.5 4 19.5C4.79565 19.5 5.55871 19.1839 6.12132 18.6213C6.68393 18.0587 7 17.2956 7 16.5V4.5C7 3.70435 6.68393 2.94129 6.12132 2.37868C5.55871 1.81607 4.79565 1.5 4 1.5C3.20435 1.5 2.44129 1.81607 1.87868 2.37868C1.31607 2.94129 1 3.70435 1 4.5C1 5.29565 1.31607 6.05871 1.87868 6.62132C2.44129 7.18393 3.20435 7.5 4 7.5H16C16.7956 7.5 17.5587 7.18393 18.1213 6.62132C18.6839 6.05871 19 5.29565 19 4.5C19 3.70435 18.6839 2.94129 18.1213 2.37868C17.5587 1.81607 16.7956 1.5 16 1.5Z" stroke-width="2" stroke-linecap="round" stroke-linejoin="round"/>
</svg>
