<svg width="38" height="48" viewBox="0 0 38 48" fill="none" xmlns="http://www.w3.org/2000/svg">
<path d="M19.0005 0C8.88098 0 0.647461 8.23352 0.647461 18.353V35.2939C0.647461 37.6296 2.54736 39.5295 4.88269 39.5295C7.21838 39.5295 9.11829 37.6296 9.11829 35.2939V21.1765C9.11829 18.8412 7.21838 16.9413 4.88269 16.9413C4.40735 16.9413 3.95764 17.0376 3.53027 17.1826C4.13269 9.16589 10.8336 2.82349 19.0005 2.82349C27.163 2.82349 33.8621 9.16003 34.47 17.1713C34.0452 17.0259 33.5929 16.9413 33.1183 16.9413C30.7826 16.9413 28.8827 18.8412 28.8827 21.1765V35.2939C28.8827 37.6296 30.7826 39.5295 33.1183 39.5295C33.6156 39.5295 34.0862 39.4277 34.53 39.2695V40.9413C34.53 41.7202 33.8958 42.353 33.1183 42.353H22.9757C22.3909 40.7131 20.8385 39.5295 19.0005 39.5295C16.6652 39.5295 14.7653 41.4294 14.7653 43.7648C14.7653 46.1001 16.6652 48 19.0005 48C20.8385 48 22.3909 46.816 22.9757 45.1765H33.1183C35.4536 45.1765 37.3535 43.2766 37.3535 40.9413C37.3535 32.4496 37.3535 26.8539 37.3535 18.353C37.3535 8.23352 29.12 0 19.0005 0V0Z" fill="#6B7CFF"/>
</svg>
